<mxfile host="app.diagrams.net" modified="2023-10-02T23:40:56.354Z" agent="Mozilla/5.0 (Windows NT 10.0; Win64; x64) AppleWebKit/537.36 (KHTML, like Gecko) Chrome/117.0.0.0 Safari/537.36" etag="rrOL34E9Ly0OiwNtwbCS" version="22.0.1" type="device" pages="2">
  <diagram name="Página-1" id="Lm1QI4eOEW_M9_LLAPhZ">
    <mxGraphModel dx="1050" dy="566" grid="1" gridSize="10" guides="1" tooltips="1" connect="1" arrows="1" fold="1" page="1" pageScale="1" pageWidth="827" pageHeight="1169" math="0" shadow="0">
      <root>
        <mxCell id="0" />
        <mxCell id="1" parent="0" />
        <mxCell id="w2Ro7mU44pQiu4SxCaHe-1" value="&lt;font style=&quot;vertical-align: inherit;&quot;&gt;&lt;font style=&quot;vertical-align: inherit;&quot;&gt;&lt;font style=&quot;vertical-align: inherit;&quot;&gt;&lt;font style=&quot;vertical-align: inherit;&quot;&gt;USUARIO&lt;br&gt;&lt;/font&gt;&lt;/font&gt;&lt;/font&gt;&lt;/font&gt;" style="swimlane;horizontal=0;whiteSpace=wrap;html=1;fillColor=#FFFFFF;swimlaneFillColor=default;" vertex="1" parent="1">
          <mxGeometry x="110" y="80" width="620" height="200" as="geometry" />
        </mxCell>
        <mxCell id="w2Ro7mU44pQiu4SxCaHe-7" style="edgeStyle=orthogonalEdgeStyle;rounded=0;orthogonalLoop=1;jettySize=auto;html=1;entryX=0;entryY=0.5;entryDx=0;entryDy=0;" edge="1" parent="w2Ro7mU44pQiu4SxCaHe-1" source="w2Ro7mU44pQiu4SxCaHe-5" target="w2Ro7mU44pQiu4SxCaHe-6">
          <mxGeometry relative="1" as="geometry" />
        </mxCell>
        <mxCell id="w2Ro7mU44pQiu4SxCaHe-5" value="" style="ellipse;whiteSpace=wrap;html=1;aspect=fixed;fillColor=#d5e8d4;strokeColor=#82b366;" vertex="1" parent="w2Ro7mU44pQiu4SxCaHe-1">
          <mxGeometry x="40" y="50" width="40" height="40" as="geometry" />
        </mxCell>
        <mxCell id="w2Ro7mU44pQiu4SxCaHe-12" style="edgeStyle=orthogonalEdgeStyle;rounded=0;orthogonalLoop=1;jettySize=auto;html=1;entryX=0.5;entryY=0;entryDx=0;entryDy=0;" edge="1" parent="w2Ro7mU44pQiu4SxCaHe-1" source="w2Ro7mU44pQiu4SxCaHe-6" target="w2Ro7mU44pQiu4SxCaHe-10">
          <mxGeometry relative="1" as="geometry" />
        </mxCell>
        <mxCell id="w2Ro7mU44pQiu4SxCaHe-6" value="&lt;font style=&quot;vertical-align: inherit;&quot;&gt;&lt;font style=&quot;vertical-align: inherit;&quot;&gt;SELECCIONA PRODUCTOS&lt;/font&gt;&lt;/font&gt;" style="rounded=1;whiteSpace=wrap;html=1;" vertex="1" parent="w2Ro7mU44pQiu4SxCaHe-1">
          <mxGeometry x="120" y="10" width="120" height="60" as="geometry" />
        </mxCell>
        <mxCell id="w2Ro7mU44pQiu4SxCaHe-10" value="&lt;font style=&quot;vertical-align: inherit;&quot;&gt;&lt;font style=&quot;vertical-align: inherit;&quot;&gt;&lt;font style=&quot;vertical-align: inherit;&quot;&gt;&lt;font style=&quot;vertical-align: inherit;&quot;&gt;REALIZA CHECKOUT&lt;/font&gt;&lt;/font&gt;&lt;/font&gt;&lt;/font&gt;" style="rounded=1;whiteSpace=wrap;html=1;" vertex="1" parent="w2Ro7mU44pQiu4SxCaHe-1">
          <mxGeometry x="120" y="120" width="120" height="60" as="geometry" />
        </mxCell>
        <mxCell id="w2Ro7mU44pQiu4SxCaHe-21" style="edgeStyle=orthogonalEdgeStyle;rounded=0;orthogonalLoop=1;jettySize=auto;html=1;" edge="1" parent="w2Ro7mU44pQiu4SxCaHe-1" source="w2Ro7mU44pQiu4SxCaHe-18" target="w2Ro7mU44pQiu4SxCaHe-20">
          <mxGeometry relative="1" as="geometry" />
        </mxCell>
        <mxCell id="w2Ro7mU44pQiu4SxCaHe-18" value="REALIZA EVALUACIÓN DE SERVICIO" style="rounded=1;whiteSpace=wrap;html=1;" vertex="1" parent="w2Ro7mU44pQiu4SxCaHe-1">
          <mxGeometry x="380" y="10" width="120" height="60" as="geometry" />
        </mxCell>
        <mxCell id="w2Ro7mU44pQiu4SxCaHe-20" value="" style="ellipse;whiteSpace=wrap;html=1;aspect=fixed;fillColor=#f8cecc;strokeColor=#b85450;" vertex="1" parent="w2Ro7mU44pQiu4SxCaHe-1">
          <mxGeometry x="540" y="20" width="40" height="40" as="geometry" />
        </mxCell>
        <mxCell id="w2Ro7mU44pQiu4SxCaHe-25" value="" style="ellipse;whiteSpace=wrap;html=1;aspect=fixed;fillColor=#f8cecc;strokeColor=#b85450;" vertex="1" parent="w2Ro7mU44pQiu4SxCaHe-1">
          <mxGeometry x="300" y="90" width="40" height="40" as="geometry" />
        </mxCell>
        <mxCell id="w2Ro7mU44pQiu4SxCaHe-3" value="&lt;font style=&quot;vertical-align: inherit;&quot;&gt;&lt;font style=&quot;vertical-align: inherit;&quot;&gt;SISTEMA&lt;/font&gt;&lt;/font&gt;" style="swimlane;horizontal=0;whiteSpace=wrap;html=1;fillColor=#FFFFFF;swimlaneFillColor=default;" vertex="1" parent="1">
          <mxGeometry x="110" y="280" width="620" height="140" as="geometry" />
        </mxCell>
        <mxCell id="w2Ro7mU44pQiu4SxCaHe-16" style="edgeStyle=orthogonalEdgeStyle;rounded=0;orthogonalLoop=1;jettySize=auto;html=1;" edge="1" parent="w2Ro7mU44pQiu4SxCaHe-3" source="w2Ro7mU44pQiu4SxCaHe-13" target="w2Ro7mU44pQiu4SxCaHe-14">
          <mxGeometry relative="1" as="geometry" />
        </mxCell>
        <mxCell id="w2Ro7mU44pQiu4SxCaHe-13" value="&lt;font style=&quot;vertical-align: inherit;&quot;&gt;&lt;font style=&quot;vertical-align: inherit;&quot;&gt;VALIDA DATOS CLIENTE&lt;/font&gt;&lt;/font&gt;" style="rounded=1;whiteSpace=wrap;html=1;" vertex="1" parent="w2Ro7mU44pQiu4SxCaHe-3">
          <mxGeometry x="120" y="30" width="120" height="60" as="geometry" />
        </mxCell>
        <mxCell id="w2Ro7mU44pQiu4SxCaHe-17" style="edgeStyle=orthogonalEdgeStyle;rounded=0;orthogonalLoop=1;jettySize=auto;html=1;entryX=0;entryY=0.5;entryDx=0;entryDy=0;" edge="1" parent="w2Ro7mU44pQiu4SxCaHe-3" source="w2Ro7mU44pQiu4SxCaHe-14" target="w2Ro7mU44pQiu4SxCaHe-15">
          <mxGeometry relative="1" as="geometry" />
        </mxCell>
        <mxCell id="w2Ro7mU44pQiu4SxCaHe-24" style="edgeStyle=orthogonalEdgeStyle;rounded=0;orthogonalLoop=1;jettySize=auto;html=1;" edge="1" parent="w2Ro7mU44pQiu4SxCaHe-3" source="w2Ro7mU44pQiu4SxCaHe-14">
          <mxGeometry relative="1" as="geometry">
            <mxPoint x="320" y="-70" as="targetPoint" />
          </mxGeometry>
        </mxCell>
        <mxCell id="w2Ro7mU44pQiu4SxCaHe-14" value="está ok?" style="rhombus;whiteSpace=wrap;html=1;" vertex="1" parent="w2Ro7mU44pQiu4SxCaHe-3">
          <mxGeometry x="290" y="30" width="60" height="60" as="geometry" />
        </mxCell>
        <mxCell id="w2Ro7mU44pQiu4SxCaHe-15" value="NOTIFICA AL USUARIO" style="rounded=1;whiteSpace=wrap;html=1;" vertex="1" parent="w2Ro7mU44pQiu4SxCaHe-3">
          <mxGeometry x="380" y="30" width="120" height="60" as="geometry" />
        </mxCell>
        <mxCell id="w2Ro7mU44pQiu4SxCaHe-4" value="&lt;font style=&quot;vertical-align: inherit;&quot;&gt;&lt;font style=&quot;vertical-align: inherit;&quot;&gt;CONTABILIDAD&lt;br&gt;&lt;/font&gt;&lt;/font&gt;" style="swimlane;horizontal=0;whiteSpace=wrap;html=1;fillColor=#FFFFFF;swimlaneFillColor=default;" vertex="1" parent="1">
          <mxGeometry x="110" y="420" width="620" height="140" as="geometry" />
        </mxCell>
        <mxCell id="w2Ro7mU44pQiu4SxCaHe-22" value="REGISTRA VENTA EN LOS LIBROS" style="rounded=1;whiteSpace=wrap;html=1;" vertex="1" parent="w2Ro7mU44pQiu4SxCaHe-4">
          <mxGeometry x="380" y="30" width="120" height="60" as="geometry" />
        </mxCell>
        <mxCell id="w2Ro7mU44pQiu4SxCaHe-8" value="&lt;font style=&quot;vertical-align: inherit; font-size: 17px;&quot;&gt;&lt;font style=&quot;vertical-align: inherit; font-size: 17px;&quot;&gt;PAGO ONLINE&lt;/font&gt;&lt;/font&gt;" style="rounded=0;whiteSpace=wrap;html=1;fontStyle=1;fontSize=17;" vertex="1" parent="1">
          <mxGeometry x="110" y="40" width="620" height="40" as="geometry" />
        </mxCell>
        <mxCell id="w2Ro7mU44pQiu4SxCaHe-19" style="edgeStyle=orthogonalEdgeStyle;rounded=0;orthogonalLoop=1;jettySize=auto;html=1;" edge="1" parent="1" source="w2Ro7mU44pQiu4SxCaHe-15" target="w2Ro7mU44pQiu4SxCaHe-18">
          <mxGeometry relative="1" as="geometry" />
        </mxCell>
        <mxCell id="w2Ro7mU44pQiu4SxCaHe-23" style="edgeStyle=orthogonalEdgeStyle;rounded=0;orthogonalLoop=1;jettySize=auto;html=1;" edge="1" parent="1" source="w2Ro7mU44pQiu4SxCaHe-15" target="w2Ro7mU44pQiu4SxCaHe-22">
          <mxGeometry relative="1" as="geometry" />
        </mxCell>
        <mxCell id="w2Ro7mU44pQiu4SxCaHe-27" style="edgeStyle=orthogonalEdgeStyle;rounded=0;orthogonalLoop=1;jettySize=auto;html=1;" edge="1" parent="1" source="w2Ro7mU44pQiu4SxCaHe-10" target="w2Ro7mU44pQiu4SxCaHe-13">
          <mxGeometry relative="1" as="geometry" />
        </mxCell>
      </root>
    </mxGraphModel>
  </diagram>
  <diagram id="bYjS4u7S4d-3vqMMGrSS" name="Diagrama de arquitectura">
    <mxGraphModel dx="1050" dy="566" grid="1" gridSize="10" guides="1" tooltips="1" connect="1" arrows="1" fold="1" page="1" pageScale="1" pageWidth="827" pageHeight="1169" math="0" shadow="0">
      <root>
        <mxCell id="0" />
        <mxCell id="1" parent="0" />
        <mxCell id="e-cugh1n1kFItVOkg3eF-2" value="" style="rounded=0;whiteSpace=wrap;html=1;" vertex="1" parent="1">
          <mxGeometry x="120" y="10" width="780" height="620" as="geometry" />
        </mxCell>
        <mxCell id="e-cugh1n1kFItVOkg3eF-1" value="Actor" style="shape=umlActor;verticalLabelPosition=bottom;verticalAlign=top;html=1;outlineConnect=0;" vertex="1" parent="1">
          <mxGeometry x="380" y="60" width="30" height="60" as="geometry" />
        </mxCell>
        <mxCell id="e-cugh1n1kFItVOkg3eF-3" value="Diagrama de arquitectura" style="text;html=1;strokeColor=none;fillColor=none;align=left;verticalAlign=middle;whiteSpace=wrap;rounded=0;fontStyle=1;fontSize=15;" vertex="1" parent="1">
          <mxGeometry x="120" y="10" width="200" height="30" as="geometry" />
        </mxCell>
        <mxCell id="e-cugh1n1kFItVOkg3eF-4" value="Tienda de e-commerce" style="text;html=1;strokeColor=none;fillColor=none;align=left;verticalAlign=middle;whiteSpace=wrap;rounded=0;" vertex="1" parent="1">
          <mxGeometry x="120" y="30" width="190" height="30" as="geometry" />
        </mxCell>
        <mxCell id="e-cugh1n1kFItVOkg3eF-5" value="versión 1.0.0" style="text;html=1;strokeColor=none;fillColor=none;align=left;verticalAlign=middle;whiteSpace=wrap;rounded=0;" vertex="1" parent="1">
          <mxGeometry x="120" y="50" width="190" height="30" as="geometry" />
        </mxCell>
        <mxCell id="e-cugh1n1kFItVOkg3eF-6" value="" style="rounded=0;whiteSpace=wrap;html=1;" vertex="1" parent="1">
          <mxGeometry x="140" y="160" width="540" height="450" as="geometry" />
        </mxCell>
        <mxCell id="e-cugh1n1kFItVOkg3eF-13" style="edgeStyle=orthogonalEdgeStyle;rounded=0;orthogonalLoop=1;jettySize=auto;html=1;exitX=0.5;exitY=1;exitDx=0;exitDy=0;" edge="1" parent="1" source="e-cugh1n1kFItVOkg3eF-7" target="e-cugh1n1kFItVOkg3eF-11">
          <mxGeometry relative="1" as="geometry" />
        </mxCell>
        <mxCell id="e-cugh1n1kFItVOkg3eF-29" style="edgeStyle=orthogonalEdgeStyle;rounded=0;orthogonalLoop=1;jettySize=auto;html=1;exitX=1;exitY=0.5;exitDx=0;exitDy=0;entryX=0.5;entryY=0;entryDx=0;entryDy=0;" edge="1" parent="1" source="e-cugh1n1kFItVOkg3eF-7" target="e-cugh1n1kFItVOkg3eF-28">
          <mxGeometry relative="1" as="geometry" />
        </mxCell>
        <mxCell id="e-cugh1n1kFItVOkg3eF-7" value="&amp;lt;&amp;lt;front&amp;gt;&amp;gt;&lt;br&gt;fe_commercio" style="shape=module;align=left;spacingLeft=20;align=center;verticalAlign=top;whiteSpace=wrap;html=1;fillColor=#d5e8d4;strokeColor=#82b366;" vertex="1" parent="1">
          <mxGeometry x="310" y="200" width="170" height="50" as="geometry" />
        </mxCell>
        <mxCell id="e-cugh1n1kFItVOkg3eF-9" value="&amp;lt;&amp;lt;backend&amp;gt;&amp;gt;&lt;br&gt;ms-ventas" style="shape=module;align=left;spacingLeft=20;align=center;verticalAlign=top;whiteSpace=wrap;html=1;fillColor=#ffe6cc;strokeColor=#d79b00;" vertex="1" parent="1">
          <mxGeometry x="460" y="435" width="190" height="50" as="geometry" />
        </mxCell>
        <mxCell id="e-cugh1n1kFItVOkg3eF-17" style="edgeStyle=orthogonalEdgeStyle;rounded=0;orthogonalLoop=1;jettySize=auto;html=1;" edge="1" parent="1">
          <mxGeometry relative="1" as="geometry">
            <mxPoint x="256.0344827586207" y="400" as="sourcePoint" />
            <mxPoint x="246.0344827586207" y="485" as="targetPoint" />
          </mxGeometry>
        </mxCell>
        <mxCell id="e-cugh1n1kFItVOkg3eF-38" value="DB" style="edgeLabel;html=1;align=center;verticalAlign=middle;resizable=0;points=[];" vertex="1" connectable="0" parent="e-cugh1n1kFItVOkg3eF-17">
          <mxGeometry x="-0.2991" relative="1" as="geometry">
            <mxPoint as="offset" />
          </mxGeometry>
        </mxCell>
        <mxCell id="e-cugh1n1kFItVOkg3eF-10" value="&amp;lt;&amp;lt;backend&amp;gt;&amp;gt;&lt;br&gt;ms-base-datos" style="shape=module;align=left;spacingLeft=20;align=center;verticalAlign=top;whiteSpace=wrap;html=1;fillColor=#ffe6cc;strokeColor=#d79b00;" vertex="1" parent="1">
          <mxGeometry x="170" y="350" width="170" height="50" as="geometry" />
        </mxCell>
        <mxCell id="e-cugh1n1kFItVOkg3eF-14" style="edgeStyle=orthogonalEdgeStyle;rounded=0;orthogonalLoop=1;jettySize=auto;html=1;entryX=1;entryY=0.25;entryDx=0;entryDy=0;" edge="1" parent="1" source="e-cugh1n1kFItVOkg3eF-11" target="e-cugh1n1kFItVOkg3eF-10">
          <mxGeometry relative="1" as="geometry" />
        </mxCell>
        <mxCell id="e-cugh1n1kFItVOkg3eF-11" value="&amp;lt;&amp;lt;backend&amp;gt;&amp;gt;&lt;br&gt;ms-comercio-bff" style="shape=module;align=left;spacingLeft=20;align=center;verticalAlign=top;whiteSpace=wrap;html=1;fillColor=#ffe6cc;strokeColor=#d79b00;" vertex="1" parent="1">
          <mxGeometry x="308.75" y="281.25" width="172.5" height="50" as="geometry" />
        </mxCell>
        <mxCell id="e-cugh1n1kFItVOkg3eF-8" style="edgeStyle=orthogonalEdgeStyle;rounded=0;orthogonalLoop=1;jettySize=auto;html=1;entryX=0.5;entryY=0;entryDx=0;entryDy=0;" edge="1" parent="1" source="e-cugh1n1kFItVOkg3eF-1" target="e-cugh1n1kFItVOkg3eF-7">
          <mxGeometry relative="1" as="geometry" />
        </mxCell>
        <mxCell id="e-cugh1n1kFItVOkg3eF-39" value="HTTP 80" style="edgeLabel;html=1;align=center;verticalAlign=middle;resizable=0;points=[];" vertex="1" connectable="0" parent="e-cugh1n1kFItVOkg3eF-8">
          <mxGeometry x="0.3618" y="-4" relative="1" as="geometry">
            <mxPoint as="offset" />
          </mxGeometry>
        </mxCell>
        <mxCell id="e-cugh1n1kFItVOkg3eF-15" style="edgeStyle=orthogonalEdgeStyle;rounded=0;orthogonalLoop=1;jettySize=auto;html=1;exitX=0.75;exitY=1;exitDx=0;exitDy=0;entryX=0;entryY=0;entryDx=0;entryDy=15;entryPerimeter=0;" edge="1" parent="1" source="e-cugh1n1kFItVOkg3eF-11" target="e-cugh1n1kFItVOkg3eF-9">
          <mxGeometry relative="1" as="geometry" />
        </mxCell>
        <mxCell id="e-cugh1n1kFItVOkg3eF-16" value="base-datos" style="shape=cylinder3;whiteSpace=wrap;html=1;boundedLbl=1;backgroundOutline=1;size=15;" vertex="1" parent="1">
          <mxGeometry x="190" y="485" width="110" height="115" as="geometry" />
        </mxCell>
        <mxCell id="e-cugh1n1kFItVOkg3eF-18" value="" style="shape=image;verticalLabelPosition=bottom;labelBackgroundColor=default;verticalAlign=top;aspect=fixed;imageAspect=0;image=data:image/png,iVBORw0KGgoAAAANSUhEUgAAAMwAAADMCAMAAAAI/LzAAAABLFBMVEX///9ChfT7vAXqQzU0qFPW19hPVFlvc3d5fIBbX2T39/dMUVf8/f89g/SeoaTs7O09Q0re3+BobHAoevNSjfSuxvlIrmFUWV6SlJedz6cWokL7tgDk5eVHTFKZm540qU02o3A/jde1t7m+v8HNzs/qOys1PESqrK775ONyn/boJTn8wgDb5fz7wD+ChYj98PDubWXtY1noHgB1d9L3xsRhlvXt8v77vC38xly/0vr+7tCbufj94q72vbnwjIbvenPrV0z51dPpLxveKizcS1XXTl7zoJvYZ3dga9LrVliNsfjtVjHyhyL3qRT7zHX+7MTweCH/+O35yaT2mwD93J7804hToBdWtnagzrWryOfmuRpnrEno4bhwqTja7N4Amy2CxZVTrINZmdgeJzGbC3c5AAAH90lEQVR4nO2ZC3ecxhWAWdswzLDLY1bKUC+QBJCQagu5iiw/JVlK67ZOq9StWqdu4z7y//9D78DAwgZ1H3a0bM79zvHRwszCfNyZe4e1piEIgiAIgiAIgiAIgiAIgiAIgiAIgiAIgiAIgiAIgiAI8uk43AMO1z2KT8Dh6dn5o18Bj87PTvfWPZqP4uL81d2dmruvzo/XPaKVuXgkDRrA4auLdY9qJQ7PjlomyufofANXz97dox+rSC53Ni44F11hUTZfb697dMtx/H9cfv3VeHu47gEuwfHOzS6/+WowGG9QbPZeNV12Lo+Ay52py2C09XDdY1yUw7OGy87Ro9enx8enr88uLysXsNk/WfcoF+S0lYkv9pg8yQ73Xh9VLmDzYt2jXIy98zowOzvHjarCLn77u0El83gzJtopuPyy4Ovfz+zGTt6MK5vNyAGHZ5d3v/nDHx8Ak6tv37Ybh7XNZoTm4ps/TR48uFMymVy1dR4+HlWhebamAS7Dn/9SmSid65bOdi3zov8J7eWTOzNMnjZtTvZHdULru831ZNYFOHje6PFiVOeAnheb6w6VGZtnWw2bPu/RnnfFRU60hszDqcxg/GZ9Y53LQXdgmi7ayeOpzGDc3/zcmmSTSRWmg1Y6O2lEBqrNusY6l0ZgJk+vX149KXSetCvNyfb+uKHT12ozzcqTg/KMzG0zLgX79a5mtH+7Y1yYqzouV9Wpl50ukJ+nu5qepuenlUtD4K+dLtPSOdrq5zx7Wy2ZyfX8zs9UaEaDfu6en9cyz+d3flhngH6+pS0nUyXoUT/r5s8qMiutmcFWP9fMNJvd6U5hDXqfzRp15mCOzbD/debb6Q7gzlvWahq2ONmAHUBjb/b+b+9+0eC7v283eDOuXQajns6yxq75/T/u3bvf4Isvx002YtdcpQDp0uTzL75s7JOb9Ph9Rr1pzrrcLDPuZ5FRvASb99/fW1Cm378BSJsfxeVGmb7/OqNp//z+/oIy4zd9d9G0D+/+9fkCMuPRs37PMcWHz+7fn5UZj1qMB5vz35ofvvv3u88a/Oe/W032X/Q4IyMIgiAIgiAIgiAIgiDIIjA9tu0s8Vb46nDI5ne6RVicEyoE5Wa0tI7nm3GfbByTUhECBvjES/6iqvPQvlEmyPw8j5LiM0sTZ8FrJunKj4cJSkMz8QIvMyyDLBkbnRg3yTi5EBY8IkqljmO6i156l+vLDWJKSEVtkPFl59nNMqkrDJIlcWQIy78lGVNQc9H4d3CjTLpLczV62yD6rcjosE5WSWL192+QYaHw6+WXprcTmZxSu7PB8XRvGjEWeHrAWo1McxibypSnanxB2o61DHOCQF24zurVX2hiq8sMIScHHedZ4hPO80S1eVnOuWmrLMNin1NiB5GdVTLQn3MSpfXQqZG0r6hkhnqWm3lUXMmJVVD1LJEfghia7HRlmYBToT56ugLu6fjCkIkozIvLpkQeWQbN5D1ZVDSGuWERJcOgP5yxaKwullBr5k6lDIu5Kwj8syE4HvmhlMl2c/gQ5KFFSEhTa0UZnVOqPkbELCA+03JLkDhNTCFkckg5DaMkzbgQskBCeuIZNELONZVMpPpTS8XGprxTJhXC1j0vMUTENM/cLWXiEO7JzNBMPU/POV1RxpvK5JZhQKGhwmRpSE05eaFS0EiGyZLTgKVE0EDzQkp0VtZaJRPI/lphrRwiYXbJMK5WmB5C8WnLxCEpJjVbWaYxzbIIsH0CwzAFL5/wEEbJUi5ydVNhxbC01WRyQiWj2YLDCnEiQg23HIctSJdM6uZqFUZhNCMjaFY2peGq2QwSQOubnmn4mkWr55oLridWNXlg5BHclKhkxIWSIZQMdZiTYb21ibvXTAYK6lJu7rRl3Fph5dScUdp6hglMqeFUJjJ4mlihqhBebuSaASMvD81KBuaqcIUgdTLTPGrNVJVCJgqrOuBAjFoyjsurSuCuKsMorcIrCXJhBDIy6gnnguiJ0YoMrSNDKxlYPZS3d9xE5B0y9k8bGS2xKK038UFkGJB+6zUjlwXTYc2Uw89EmECw1JoJLLVmhplByx6srlmpIaaFxoGyMrNm7GLNuOVR1loz+sprBmo1pNgIyjtzvMS0hExLkGtMvcj8VNiyrliZIwsjFzAVIHWRtGysspljlaeciNYzzQ9prCLo+WFcyjhUZGU2MyCbOWZYjF+HdQrZzC2zGWTJ1WVg2Qh4srYdgYowvXIkgttxbApD1hmdwL43jiMuaALLJbOKxrxRZ6pTIqwXIINr+Inu6WlMXJ6oOpMY1NYDL+Fy+JDAKbx6pPCqIOsMsfIUjiBbfoSMlhQlRkLtMu7MNizACH2vfHRWccyL+cgyAZ9D1y9kuAvlTytOQf98unBksbe4Sagb+jA4h+wWOwDq8pyEYSRvFMB1TUgjUShzP8w6Ckdh6tKPkNGCxJZ1N8/0eueX2iYnfqomCuya+LS5aDQzJtdMkBU7tmHRP2+/THqwwaNyS+cUblHxR88IpdWFAxtmru3ottqbwQyD/V2UdW0XF0duZQOHtc8406ENnVazbGSaLJoaY6yjv8JpfI2x+rtB3ZEFcp88VG3D4rJ1z9vAU2/1sIijOV17j/ODes2GUvkxc7sf2AZkn9iGLam/7qF8AiLI5aElaD6/6waQ5PDek8fzO24GjYSEIAiCIAiCIAiCIAiCIAiCIAiCIAiCIAiCIAiCIAiCIMhPxP8ArwTZf68R3a8AAAAASUVORK5CYII=;" vertex="1" parent="1">
          <mxGeometry x="150" y="170" width="70" height="70" as="geometry" />
        </mxCell>
        <mxCell id="e-cugh1n1kFItVOkg3eF-19" value="" style="rounded=0;whiteSpace=wrap;html=1;" vertex="1" parent="1">
          <mxGeometry x="690" y="160" width="190" height="450" as="geometry" />
        </mxCell>
        <mxCell id="e-cugh1n1kFItVOkg3eF-20" value="" style="shape=image;verticalLabelPosition=bottom;labelBackgroundColor=default;verticalAlign=top;aspect=fixed;imageAspect=0;image=data:image/png,iVBORw0KGgoAAAANSUhEUgAAAP0AAADHCAMAAADlCqUFAAABF1BMVEX///8GBwj7qBoAAAD/rQD92Jr8qhf+tS3+6MmMjI3c3Nz09PT7+/tERERLS0v9qBOYmZr+7tX9uEX+rRIAAA3QjR10dXUqKyv//ff8z4/+47fn5+fKysoAAAXw8PDS0tK4uLj/v1aGhof/uzFiYmM9PT7BwcHi4uL/+O3+7M59fX0xMjMREhOjo6SsrK13d3j+uj7+8+BaWlsbGxxoaGn/sxskJSVSUlMXGBpnSBiyeBnvpx39w2T8xnL+0Ib+4K39zoj90pXf2tJVUEn94LL3wG/RlTevdhiYaBh3UhpaPhQmHg8ZFA9JMxKNYBrjmx05KhVmUDPPiQ7sxIE4MivDhyDfv4n/tgPcp0v/4579vVv8wGv8skGMUIdYAAAWR0lEQVR4nO1ca3vixpIGGsTVFlgOls2dGAw2xmADdmYMtnedzeYkJzl7mc2uM///d6xaAiF1VXW3gJkJ53F9SJ7BrVK93dXVdWvFYntDzTKg7reW6etRmwHKfmuZvh5lWVwgVvzWMn09ekf/jv4d/Tv6d/TfWqavR+/o39G/o39H/47+W8v09egd/Tv6d/Tv6N/Rf2uZvh79E6Iv5OsVh+r5vHKoJvrCkuHuZd0p5XPd5nWxfTM5Pz8vX7aL181qTiazGn0h1x0Wsy7Dm3Zx2G1UlDIA0h1fkI4ryPlWmtnJ4ckglJ8eXB1Osk1SYhX6xnU5zHHWOZewc2nYOQzTbVU2vLkeeC4bV5kIbA/KATmq5YOZK2AYDKe7TrmJz6sc/fD8ahDm6LE7uMxJxMxFKxFMAgMbknFdyHa1+PXrDgAelvmufRENff76gWDJf76tkmqaPxAeYvfYq5fU6KxHsxt6XKEscr1bqlRl2CGRB0TO5oDEJPp680DG0uFWphaqUBTlHEiqY8V4AP0VbSLqM5HrrTun+e65Ersn8VVRXAQKfaMcV7Bk7OS6jgvaGIiCZklFqU+C+2rQJNE3RXm8/XTRFmdFIvH9UAt9U61LnFsZ3/6VWxH9IWknq1fBsRLVPxd5nnCFqh5qLfxK4IfwMqDoC9k7LZaMHeDW/BqsE2n1w0PZAWVO86wmsLzN86cjgHclvg1qP0RfK9bL2izZYIiJWj0RF+qSACWoCYtfEwOHiOLns9Gwu48FFwyiH1zqg+eTibmGoc3sDjshzFm1JhzQZcKWAMW/a+Tb0cE7D3bWJhiij4smS041do1YtKJoMwnVL4jvZ1f4SZK7EgfeF9oqw4wTu/JlQdBHZTZA4FeBsLg5y4tbJM7QrRS7BsfIdXGTlXcf9Wd4e/RL4yus6b0o7Aw988AxFmfnmOpDV+fhZlPwAdu6A/SotgKHhzUx9OIk8Z2EqX61Iw68k4KvOSTz1W4rO0PvzCU4zitg42OqX0cgoEHBUH+hvdjOIRjzBAa18ztDjx1ohzoOD/AL4ri3WxcVn5aE3R3eFIdNh4bF9u2MmIClU6mB3g+pZGPA1heBsVkTohd9Qm8kPB6AxSdFPbxuXPiGI1/JDe8J+FcVNXovPL6dlM+96JkcdyguWB34Zm0AqgEsvjuwDAYCV4eQ9b4LbGu+eovHqTcq9JzfdYPnXHhaJdd0gikRkz8SOD3A4TkETiz+cjYQrX4d1REgwj0RSXbRoIVbVwl6xjpFQY789SHhYbCOaKrFwwzGbyAYWo0Uj/yczH777LNkJFW5QTw4di5Dz64wdjyLgg8XF/8C+PptYXd0idiUTQRWmHEUn2FDSVIwX4RhG5t1SfQ1dkvoUUP0uJfM7gXFzl+K6A/CyQXg5foDOwIrMVeEgqex83cVHyD8GxI9K5PJqItLdBsBd6YpDhMOhgvo6izHCYFeRQN8UZ4O5koOfOpOTvTJVn85l2Sh8QgYRGc5cOTfhETs0ptuEmLVVqOnIsMAiVaYhwqE2b2VMsrfoIsv6GtBlJrdBWXM0x5MIArjfAhLExgPTC5CIC/oLPFkgHE7UExlBVNaYPeGoqkJbY4LST6OBVW/qko0sbhW8Q3mR046CHpuDRXUwBz0e2HvXQDVD1YrZB7MKgpxSemOKhfLo7ooTjz+gHGjM7A+IXuRMVEIcYMwFmAMZQkMrK1VWe3qKOy9T3oe44HGLqog6gic/SZISTT9v11IRQksQBd1h4Njr2IFHQrVTSRv1plIxAMBnnweZHjWfozckLMTX4/Uij87PNCjGe6mh5hdSWuOK0LCLnYvDgIOT2flRagMua9HF2ofH14tIkgN3lkf9a6PIa4cXzBxUBXko1ZbtKvInfoGUmnxd0u6vRsw3cLiwPaK/qXv8MC5EwYyz90CNcEvS7W45n08kLaNIwVo6Ot7Q+BhKGrl8shHPYsvR2ymdXg6Gx/KBTOXol/A4p7qDwWlYPdgnjx3U9w7X5hYRw88lmtjoAwFPAx2yScXxn/XYijDTlwtUfv4OyWFix8gKBg0GbCU70avDSFmZYNGDGwkzgxWO74sgdQCSUj5F3oKVWD3mjFoMdl5BVYAeFkDKr7GqbUFkdVWQNAaI4nLCqg+lvNIkXPInT9hRniJCJRwZprZ3Q1J/xKyFnqY2X6oxHJCctCNUPNgSrKxPNCcc+3M/kYUYe2BEmLoYT2zCWfkkh/uIA16XwE/xYcqR2E70t/3emtfB6p/K+bp2J17DOY6oimsgiBxpl/V2YiYtGMwSDo2PwZL+exBTGkt053wGJwgURKWVtodsQNN8EhmCp73MaRgw6ja/lDZjcC6IF0WIchBCPCiekxEQoIvPM0AxoHNvPStEe9RGHmH+P3sNrcpXQBFcnabHnrMz0cfVdUi1t6lyrHjFhm27R1s3jm+eX9+E+gpq6G1pIqi9r4+Y5vyxkN3dqsgXyTmkrdDr2f088gGvMOHyjJ4/DG/blKXF23cJgmYnkKtzcboyYbBEF1ASdkhPlSu+sGMkPwwdws2wHnUj8t00NcGWnMJ+41IR6kuteXBsBhLlK8Huj3ZmNHXyMLqondDDiXlkbwc3pjkCAyLSIGHroJvk2X7lnINQU5M30XRQa+TH0dy4zCfvyJET9ZPherasjzW0hwjG/9u089DYflijZ1fwdoBxFqOT5K2GxZOpF3QeVd25Y0E0VCc6PHbEL30ioRLoHnQfYo8KpH873rKQpXyAp2/ZrdLiKALlhfytPLQeuhrqkMECsBFoDWmWaOWVJwyutrkj6zAfA+LN5VIqycizbKX+JvkW1/MSXrPTGj1I33YlTr7dEFtEjbzLTuiSQy2zIWpMES8/DaOnvfdk7pUQKORGmXx3UcoHxbsWHKTBNyCHFZAZkOZw1vJYtpKdC/wOFTs11pRHe+NDl96EKmJV2SQynuTyNwFNyN2grIaeudsyRTr2WMnVfKIYfEyGrM0Jjh4uY+EeIbuUzNgK0C/y2poYDHQDjbG7pv4yxuXM7TV5rYu6VhjV0XYfJylGtbu5S4SnpRA0ufEJgl50Xh5i7GBeOeKU3WCYnejK1l92MF/E1r/6s0J4YoqT4ku6u1itgIP9MIjifoWT1eUmxd13lzK20vrle4l1afshAcVRXWcG8b77LBbrXaHxds43airrIEUsLIEiyOmtY72BN2FVYtqdOQi1jrnl9lisXgz6TzIWouHOr0BkjzQelBN6R2ibV6wHzmG5zjYTdiiF7J0WUNLYi+Q31F/vjojgpUj8eAM5C/iSCtkXqdxWSaxm0ndzd2Msjq5VIC6SvVaIV0hYu+qKmxWSjxwJ34n93Jg7zlCSPqfsJQwG4J1kcn6/ZQSL3vydnEnS6dTkmcuxOsK8LD3CCQC2V0TGQZvKmlLPFuejDu4jye66gQBW04314KRYv+3R1117zYusX9TAMtuRCoSswfN1EJBUOhajYykxEAPq5Bx2mz1AyYUQX8V5Sqq9MMCgqxhX1/SFHkhjMQuNHkDdS7Ki9hnaw8OQV+McvntRLP2EeNfDQljoovFQqDHDunYuaxxaSUMPhiNodWMpvYFMHxDEhSy+rglW1K3Ftx+lOK7NMQ/kMEvY8IdXHNil+BM4rWcBn6LSxw5uNTI/q4pVPuSLaj9L//K4sfHSwTyL7HEcu1wFOM+dXw8GAx8Dv47a+dhVSUqWZW2skWSsQPZRSCE8oFCBCMWtNd/TZ0+//hvnz59+Onff/7bLw4A2AIqsOVBd22F/PjXv//w208fPnxyOHz46bcf/v7ragJ4CCysFriusrxZV2gSlxjXC9+OXEQosmOfsAXtPc1bo7RlmZbh0sePv3/67R9qN7pe5d/scebp+JefP/3+8aOxpo8fv/vw86/HNefvh02gbdnasUjLl1Wu78gwwfnDeTV66bTxH79/59ORS48l/6/9eXpqmWYiQIZhTY3//K+emvVFtjP45efvElNn4hIii8SnH/77cjXb4/noaEVcnE8fvgvS787Po36M32K7QgIl/svdZGntSq0jkVoSGf/nD0ugoyV6O9NKWmG5V+JbSWtRspX4S//7cTpFOSSM6XT0f+PVOOdFAZqO3r4P/pP/54+5N7R5eXhSCydCZweT69X2sU9DnNwnnyQSppKCXOYSfWlh4dg96ZPp1FjC1mWQljBIJCxzxWLcCqvX6OnNFAabo5VGVrrF9uT+oHNyctI5uJ9cFpuBQ248Et9opGVqSqDvpUZS0bkCtM4kfHsvRwoGLotXG0Gf7r9Y4tjpS4B5PddoVKvVRiNXCVt5gCaRTMlWCEdfepyKsw/JTJ+S89p/02DgrH960UPQZ8YJsPiPClXjZKfFWTPSJdkDKPoM4IKSYVEiPRlaDJy3WY5KQ/SxNwhDpmmr14KlN5+l5gmib5WeLE3ZE8kRNrX2Iqmz8B5Z1uv4DaDPQBxz5Tljj8CcjTLSJyD6z/N0BNnTfcByPNfS+jWLBVz7GASCvEmgV7Bo1lx+MkE7kTAiyT4ShRrPleYuTKYw3EWP2K8XxRlrP4roTdV2QdBHI98/8GUgjnhtctGPgemxRgrVPwM6a70pJmxr9AnB9M23Zuiid2yH+HvyVYrE/hHorCXzdHaDPpEM2iModGRy0ccyQIWskRRJJh3xgd2gNwIexVMEi0nyc9H35oCTKbN79jMYn1QtvSZ6hds3XZ0r/SOlf6c2Ch762BNY/ORcAqQEnFxL6uRqoXcimqTJyQkfyGW1jjxmvbnEUTAsa8mJCJ4E9KUW8PfSEn8vqpOrRm86wdzR4unModfUY9oknZjli55IWJzTaJ7inM5Si9aUZuWjjz1DZ5/G00OcXLVvLENvpR9fg8rTfz4i/BjzM39Tb0osvelwegqpYWYxIlVphT6TBnzeSF3ewD+QojfTC2BleqkWvrzT0xht7x1vDjrEJCsffQx4L4k0eeiBiTdRJ1wTvWG9oX7SeIE6M050EBvjbo5pPeIe1/gFPyB89K9ANmtBLD6Mbyx5fCNHP50Tu8Z+Aucql3j6FHtGWRkWHQdnjrCt4qO3wYIaxILaLejkyuMbKfrpgp456FEmeDxRamFLb5hPkjUovSGv99EjW8lKodzOgImw/tRYegL9dCF75gxZfWP0CCTgPys8jjEI5IPox8Ay4M6+DU/aqUY6gECffJQ/BB0RggxLdeaOgc4G0COoUGcfiW9kmVw5emukOil1vXlLsoGWVAIzuUYfy8DFR2DZCzhJWkuPxveW8lHoW6BktjSScUCCAPoeOPSMJHT2+9DJHensehS9qUiIcIInDEZTZZjBEYq6H0DveI8iT+js26fQ09F5MYp+HbNEERkj61FrBUT1DqIvgbDJTIh2DyqiMhFCo7fU6cMYtiiQtJYeqncQPebsvwjPQz9DmdUg0Rt6MsOAEpChufnEmQyhh+bcbIVXB/GJjjTMDY7eVCSBl4QkH0SShuNBEqxWCL0NHQIhVYlo76nmtCPo6Tgq/KBS9U29U4erPsxoS94TPkZt4C1rrh+K3tJcMczhC5GR1NU/YXOH0fdANsgIJdGfpmB2ftR9L0QPjApB8JAVhVDmFAkEYfSYsx+I3OHO0ItvPILoNe3lGA1qgjLqOZucXkMhgoC+BPy9oFWDKmgp3PQgAfQ61UJOY1BjF6XQNXo8ixPkJaCHSY6AM4pkEjWdXJdE9Mrij//eP3eIfiRDfwZV33ejMjC+OdJ+7RbobdWRtzP0Y2DVDWvVXQOT+Kaup8NpD9Y+loJ1iiXvMdz1R7pnvcv5r7/vEb/SsDynBHFy5cU+gbaw+Sr0+jb/TGbz8fjdzZogSXxtJ9cliF5dAXEJRl8i+h2d9zE8d2NjwieUuaQwQV/vWe9BWDIVl8HSDDNjsReJr8epB3cZ36BIkxLopZAT9PO1kqFYm4hIpq7P1ftR4ud7UkJ3dm5jSfzTKNgl3YoKshfqGE+aGA5Q6UiFfgzj3FEfSeJHXHpk60y1rOZYWavW9zvOpnSEuyTYEWKlXmESX/+Y8QgxHOo8LJdYozVJJ0UWgyYdQ9+HHWwtEGiYmi+UoaeqRWGJZZV6fx71lqKUpvN6PsGaF+yDiHDGLgnJ6eqUfvs6XWnG91prIYawKPpXjY4Y7XSKDL01VS8+Wn6EnHQSpP0k1q8nUg+0L8K3RV56tJajKmTppvO1MqQwM4Wit9UNRlFCWwl6ZTGgjxaxkd/UeRYbuuooevydQbJa2t6VHD3+fp+QyiNVwxU7OQEhBVH87dKOKPdVUUJbGXonWJC4DWPYUcL75/ufMcOkqIi+YsVwfO5f5YVjQ89L00EvC/PHLazjwNnhsJzmwpfoUe9UtHgS9IqQOmJ8I0XvCP2EbiM7gxpfXq0l+nasdIrYkONHDDy5716Asx8UYJOlp3u2DOvPPjz3xy94V5qbB8cbdxy9mJ8hHsT4aST2psvRl0aSxbd0gwo99AnDHD1nwlKXqC4zy00qUFV9w0ovRPyl1CPV3UfaXIndM9V3F6Khd6V+O+0v1dYuvT6OKMOzPCJfUU1OuO2KrcXZyv71+inOijJiJHp4XWUtQIQkviZ6t8E0aaRHrVYrPTWTZHflysuSef+839flNEobSZqVDD28ruI/ktxk1+v0aBvenUZJc7XlX/vCPAHASRUi0OhJF3MDJ1cTvZKC/qyytqnDj0RPGpYNnNxdoQ8mBGx1YVtJEk+T6BXbxMndEfrkY+jV219NkaCHFU1PhA2Xfgd3ssSutLnMoumQBD3eMQJE2AZ9JOFhGGMvosIXhstirFdk8Y1N4hsSfRTDZSHhkAM/kumz0uHoUIYeqyBp9URqojePUjq9eB4l3zAXq5fSvsjLwbeekJuoFMG76ZGT+HL0pRIWxSFkJok72PaZNnwj2Rojd7BJygBnX+sSRgT0MRsPvsSRU7ozzAmDtbTf4tFJFPQ7SOKr0Ds/qz694GA/kp0z9ouSg//9hgjohea2RKCTYYfoY/05FYIt3zl6VtiazDyNR7A+D3N06vKIgH67JiVt9LHeK/XJFb5Z04uMMunfy/w5TZJTaJnT+TKBoI8eJvewjvUdoPfwI9IblmnNNb434+JfpNEpNCxn/vzkSekoGaI/SPQwsesV8r8Aep7GmqeT/Aqq98Uh53884m2levpvdKbQEFg4PKatYN7MzpyFifTagRttJKOW7kKkrGD3U/O3z5+/5zT63Hp8pkWjyM64LEacRfrz57d5KrNhUFICB4n1uCErj3Tq9/a4lOHUH2+uZb1S32VR2oIHrGMb0ZqUAG3avfAtCF5Q28LJdWmf0MOcsW6LFUV7hH58BJzcbWXdI/SnoJoxfd6S5f6gh8Gt9FsMWrQ/6CN+h0OL9gY9rBxvmsQP0N6gP4O3k7aJbzzaF/Tw8qdhbRPfeLQv6M/gZ6T07rlKaV/Qw6U3Nk3iB2hP0IO2Nr1PTapoT9BDg697i0JK+4G+j9xF3sHS7wl65KsiW8Y3Hu0FepjEN5SfBtGifUBvn8JbSc874bwP6OEFqAj3u6W0D+jhbcQdOLke578++jH8tq65m6V30JsC/eXQYx9G2d7JdSnzfCoQ1Vf6rQj5PnTk+zc0c0C74rwjQj4NrvVNnH8KwpY+Wnzz/9/tUVdClvnYAAAAAElFTkSuQmCC;" vertex="1" parent="1">
          <mxGeometry x="700" y="170" width="63.57" height="50" as="geometry" />
        </mxCell>
        <mxCell id="e-cugh1n1kFItVOkg3eF-21" value="&amp;lt;&amp;lt;backend&amp;gt;&amp;gt;&lt;br&gt;api-webpay" style="shape=module;align=left;spacingLeft=20;align=center;verticalAlign=top;whiteSpace=wrap;html=1;fillColor=#dae8fc;strokeColor=#6c8ebf;" vertex="1" parent="1">
          <mxGeometry x="735" y="361.25" width="140" height="50" as="geometry" />
        </mxCell>
        <mxCell id="e-cugh1n1kFItVOkg3eF-22" style="edgeStyle=orthogonalEdgeStyle;rounded=0;orthogonalLoop=1;jettySize=auto;html=1;entryX=0;entryY=0;entryDx=0;entryDy=15;entryPerimeter=0;" edge="1" parent="1" source="e-cugh1n1kFItVOkg3eF-9" target="e-cugh1n1kFItVOkg3eF-21">
          <mxGeometry relative="1" as="geometry">
            <Array as="points">
              <mxPoint x="710" y="460" />
              <mxPoint x="710" y="376" />
            </Array>
          </mxGeometry>
        </mxCell>
        <mxCell id="e-cugh1n1kFItVOkg3eF-23" value="" style="shape=image;verticalLabelPosition=bottom;labelBackgroundColor=default;verticalAlign=top;aspect=fixed;imageAspect=0;image=data:image/png,iVBORw0KGgoAAAANSUhEUgAAATgAAACiCAMAAADiKyHJAAAA5FBMVEX////PiysAaY7jjiQAcZUBep0AbpIAcpbUjCkAbJEBd5rMgwjOhx8AZozSjCoAXof06t/fs4LYjSjhhADejib9+fVCgqDkmUT79e7J2ODhjB/hiQoAb5bNhRR2oLYAYonpxaAAW4Xt1r5pmLDXn1v15dVsobjVmUvx9vjbqGuSt8joyqmCqr2husji6+/c6O3moFTTgwDSkz2sw9C90twohKRIka13qb7ThACCprngt4jw3cpOiKSzydTD1N1LhqIAVIPqs33uwprfegDoq2xZmbLWnVXaqW7jwJnIdADXo2Pbq3PBqRXHAAAP8UlEQVR4nO2dCUPiOB/Ga7a0phDr6IIihQoodjlHES/AeWd23HH0+3+fN2mboycp4jXtM7s7EhJpf/sk+edoUJQ/Q9OFBo1uv/7e1/HJNAYmAgAg2zRbk/e+mM8km2DzZLdrhe1k1bIxMNP08SGzVrhOTm1Ma+qMlwvTJuQgaHed976mz6C6Ceyp+5PTRwQdhMgu6utqLW1gjtkL1cbgIGxP3/OSPofuTWDe85dLaBNyZncydooamyanDeyumNBvE9OR/gL3GEZrWeBLUA2B9lhMGJN2Dmoa/hcDRLY+LJq8OF2aAH0LpDgG7iQwNc0ThoeGhe+iMhAwR8Gkfq0GSU3FwR1Bp2rAHr7PxX1kjXEk146Jep3xpD7tIQQ1FQtol29/aR9cfROPHRLr4uXChIScai+K+hrSNxugWvLb45btooP2KDlTPgVwM9dPed+59tChWmG6gCYJzRyX07VxU6draPlW1/Q5NGpj06VnqZeQqusqenibK/os6tqhAUSM+jYmp2t6Me8kCuIBhDhCGNejg63xDGByql1UV0G4mQv0rHrbjJld8kxnX7/ddX183drAFEg5dmx/UYeEHLx6wwv78MJj1oXwkljwWzSXM4OYnFUq4hKmlg3aIo6pGXxN1UOkodMLclT3JggODQBqx2bsE3K6No59M4dyQt0DDu4SApSpTcipBTlfkSlNlFQdL7HnDF0taqunqQ1kh/F1pBuGXrRzniJ1NUX3LrnZq17P59ECxfejcVoiwzDUIp5zdWnTxWkJjQg5qxhDuDIBiIl5EzS0MDlQLF0TdTPUVUW5UjE5VMyVKGQjSabp8RLuIAzj9S7nE0kDQJPPPQaYm17MbGKNglMkq3TpdhDF9Jzidg+yoRxRj3QQVhEH467ShmaWlWfSyOlFNIdlQwAzZK8XldXXyIaolSH/NYlJiuE+lgqgmcVBJCTRe692OZ9H9TaE7QzkLt3+oQiDcf9gYnIZYpIr4rmif1DI4gPMEpNMSBhsFbs2sWq4mcuQ/YFYrhg/YHUBzDDw8kZeRRRMVlQhWLWPJKAH0rGmbRPLifoIZtseUreKWRKiBW7islW8EqmrxR5h3KlmbOr7RUSCNTazjfOxHFxXS7kPgvFo1c5apqcbJSPv464FyDTKdzWxjFIp7xGJmbFPdXWFweU8IpngJi77dpq6VcLkXuFyPo+WazRxWDNSV3O9yDpEmVYdqC6x5YzSxq/mE6mLUKbxFlWJWC7PQXANoLUesVwSy+V5+5IG0Hq9o0Esd786358qJL27MKSRmm/LhbZlOvL1lkQkOZ4JtoP7bmbxO8/jNNRzbTkUaOO6yJZuthzXcrlt5XDncMteTG0NLlIyB9Uz8mw5HI6wOM4xNU2Tn9Sc5LqV6yLAZsGHCIMD8t0DGerndkJziPjaIHAPbUHSZd2hfl4nNKc2mx2p2+5RN0h+7J5ny01MaPtDzj6pqdh08tNFXiuX00kSk+3zegCY2zeY5egH0rGWrH4u54IXAPqtGjnTy3b0LJZzY7mSYV3lsG/FjZz/ND4JRmxlitQMlrt0yWF0s9xt03ToDogx7htgDYfE+C/54lNL99CpuVuDoCv5pFMlQRyxXIYJE6c/s3TS1JV0K1/o7nH3QILeKe5UXWK4qUt85jdW49GV5ztdz9WcMNkfh0O5Pu5UERmzj5AKsy61Ov2S5fawVznqYesmhKqjtDA4242FDU21s48HJtfEdrnazN9FEKJ+DWr+SuHEVLV1lr6UvrvCn6O9ESrQICIns/pzSlM7S0giaDzDptNLuRm+OgCQ42w1tm2phVSwXmPlmS43Zx2SI20hMHklewBwreVW33RWfjZXTxf6gxhLLKD8JHpIfYtU19ye77IAa1ZWctqhUcrxoxAP9vozbddWfqebFGX4gq8rmODKmrMRmKDp/14QV/TUHHuunuWJm7Cu87zB2pFfZeVlJpfL0ajf75MB2OYv6ZPIyRaQ3Q+vLMsi52pilfK8Xq048iPPes/yZ+Y8GbpVyvFhTE5PKpR1erpFoRmGin03601zGwR7kopkexazmXXVv5zkaFruZZp44PRZP7f7l9bUlTsBXBgts9yNJHndD/EikR2apeJIkjXkVlZ9VtTWzCIPjZSMpOnfybQ3w1FK6WEqv3Wxf4U7aeNqePln/99wZu7qqjqLCWD6JRwcG37AIrd30XmwaAl107tTDgffv/7d2E/XQahQdf7j58HfjTgdHXz9PtgN5/+X/qZ/T1dcT8/fhPMQcogzs4QhBUYrcW+TQBFjk4tnxwf7+F6P/krX0ddAocHX/X1cKKHU0VGjsd/4HmBX3afv7q8Cpyy9uw2vrnpW5JI4i3lsBYuUJH26Wj8wtBXMouB+7MsUaux/FRBlAaeMZ6p3m6JB3JOsmNxDJFZSmBmlMLmNNHSHew0ZakFwp0fShfZ/sFKZwPkLhEFT9YyIVi1oLMOGw79xE3sEDuXcFgQ335cuhF33kxbLCA6P990tOAb/2pFZFJy+wnIl35oZikhpL4DgKFUU3O5+GM4R/eP9FSJHPZcVHK6v18R1hkHJcQI6+8lK/Q3Byu2X3UD3MOBV7qixf3SQKmqdAxENLtb46++gcNsmGnnf7yKygyMP02HXMc/xe79m5NTUBYkr3iL29A2COziiN9v4Oa/KlTltcERHje+xxaqn3xvsVx999xP32YdJg1Pcto5OAHObTbj50h5Mdw+p8/j2hxsEx2+F3pyEvhxxbgeHidkOhf8p4U/LBI4EsP7RtwK4KauDICWkZS4zgHK9QXDcPA1Ju2EdCDUzLV+Vg/PqarWxHjjSUnlfZMDB1RUGLuU8YQcJ7Zp7EOyGwHUaUgiC4mUag9SMPyi5xtx9vT44PGJAhBwDh102ZORQ4sz6UGV5Jq8Ebk++kAAuuaISMT83Ou7rF4Aj3x+MyRm6LwzOsemL5CAYstqJXdnaJLjzNcCdZwZ3vgFwSt2cBMApPZW9Sigygn4GA9UFcOqHB3ceAsdKnq8BTpn0FF0EN0H0FUyYgGLZ3dFHi4Lm4JZ9qtRd7tc9Kpqtc7PnKRO4ParzVeD8fDcUHCu4DjjFCYJTrpjl4hf6LwEjSwZZLSsCrgcsT+lnpsws1ROg238YuL23BXezFjglBK7OLAdiV8RmDKy7daWl0VcM3JCy1NLBsdaUWpuDu5G/+htpcDdJ4NZznAAOubFbiZLR4r5riHOFrlE2AA7GgJtLX708uA1XVQyO1BfyHw/cktXFuMcpHjT2rvv6BeDUMLhdXu0upK9+A45bu6r6bY0PTtHoaxjtKMcsXIHexpM4cLTbhRnBKVt72772LsIz3Um6YWVWgvPzMXC04KbA9QFNsCPTckPI3vMC5JaXoKtal+fJCI7tDZ2ze9neu9l6fjwWNRh0TmPQ3GxnBVfeFDg1BE6xaQIIb3d12FvQ32HWoiShAI4mZXWccscxbG83QyqXb86bJ8chPLzETUZwNy8FF3Ycv3NNDWUVzOi3fy8Ah5sE8m3EguMwufPtdFWa52cd8dd4t7+zJrgd8s/ajtN80W9G575CoRAW0vYP0qfJODihjZMGF/X1vFLe3knX9s2FcKc3LPtKcH4+VlVZwU2BU7rQT4HBp+2WSPXv1maPR0XB3bKkWyVF8eAUZVApV1aw2z5/ZNnLLHUVOJqTOY4WLL8UHK2qysSmSWYgIikxoOxEBfI4KFEsuFTH1Ri48NhufrdVLjcrIQXQlb/QzNnBNTcFjkLijlNqlBAQI5I648mPjaHgNN7G3dIkkOq4WoLjXB3OB3fP/4j6b6dcrmwxlWlDV+ZJq8D5+Sg4VvIF4GAI3D23nBCRLJjh+Bm7MeBakuBwg+n+iTguQdXTL5zSTsVPfXdwUASn6NBL0oTz68YmpSkcjcUprQHOt6/8Mz67za3w3b4rOBiuquSsOi8Z8mm5FjkWCxIJNtwEuAzPz3YYOf/23xUc9CV+tyaA7n1BjZ217p5fBwlN8btgWu5DyPiPCM5NwUQ2D45z+kjgBMeRr3zxxI6+9lJIZrGrJfZyazUH1wWehaEsuCyP430kcDAOnGMyH/qYKEkY+Grrlp8cAOebdRU4t+Zjvp/VcYRFBBwjAv3DJqd2XI2OZFNccH7SasfB16iq1TOuJ1byFcABXwEi4zbwePpfAa5SHCAwpR4HDsmBY3w37rjqRZMGt5ULura9eXAgFpyyQH6yTYKPexP/5CIOfjPHhwSnKP+x3rey5Se/leOUiUnTSbhboxhB8JTOFk2PggOS4DKdSp4CrinOmvxi5Haa3pzonKY05+FfJT9RH1CC4/Cd0fSpMmkzisE+MBYcTUo9A2otcIcRcHwYVvkl5uSjjJ2yC+auEuLESlaO5S9AVBK4S2o5pCtdm2ZqB2eFW3YE3C3Lm/oIN/VwJnBP7G5p/Xra2QoneXoUKjGGvMtr5mG4ZCX8MXJKAqdAah1zyattyEUMnM3AXfLMadMjzNDy4KpPwpDLTzvmSXzk72ogkBuc8mxN+j6vzdIrHAElgpsy67AfQDu0FycGnAJYe2jXkh8eiYI73E3R6XzwLEyPVJ5pIY4HAzobCOsSHQEW/7HCZ6RY2k757LFzmvbxu/TylOruoXut1WRwCrMOEwofAxAHrt7m+c22DdgCDxUZfvDfycA9ltPUbFZERIzPF8FyuCcQS2zFqczcJVhya6fSTPxkIhwPPv7Gf/9WOmVi2fLvTgq4IXcaNVx4qTUOnDJtB0uhkILvMnDHldg7jb17oSO8kC9GSvLJY+W5vDq/p8o/Hmni462duTKvNNPAOWHLocjBdbHgcNQXQZ6s7OAqIjelupWBHJ86Jror76wuEgH3+KT8ekwFp4xC5MItXBI4xem2pdFlBbdTPgmNSn9J33+lEyw532pKFRXBVQ5/H5Z3y6nglEXg9mNOJUoAh4dst7ZphyrlBsDtVMon0UD/9KxckQBQuYuUVDpn5ebqzxXBNZWzizMFg7Op4r5XvsWcg+x2zMMzXdMvbEZPtKv3F6jdNhMUBfdYDi/QhITb77PH+DmQ3bstd30nsKTjlhE7lWbc4Opw8GvH7XvSPtmdLBj8JuDKGOCAgGtRdePODJq0kHvvbX0YF1mMWOn4aMwZ1xMEI+A6X9J0d3fcOU3bjX7YefzydCLo6fnL4+OgMw+FwnGq7nYGj493yZ9+7F4gwTf/pVRPqsqTxADXmdTrmz9xQ4uAezUFQuHX/rBX1xuCw9WLk4tp5z6X3hIcWY1m5J5XZ//QinYOr6ld3us2n1Zn/8ASpvve5DTsQx4mV87e4gNfSY7KYrxoVP0qqp6x+fTmhfyzYh9LkyGPjdGbfWnz88mTr5OTj0huWlslUxzKtotzsnyNzPBsSNrsSHiolmONMsyMAHONcz7/VGUAh9qbOq7kT5A0OLu9yO2JunGSAYeQ3Qa3BbaAJMAZ3eHy059t+n80awBTOhe5wgAAAABJRU5ErkJggg==;" vertex="1" parent="1">
          <mxGeometry x="224.5" y="520" width="41" height="21.29" as="geometry" />
        </mxCell>
        <mxCell id="e-cugh1n1kFItVOkg3eF-24" value="" style="shape=image;verticalLabelPosition=bottom;labelBackgroundColor=default;verticalAlign=top;aspect=fixed;imageAspect=0;image=data:image/png,iVBORw0KGgoAAAANSUhEUgAAAOEAAADhCAMAAAAJbSJIAAAA8FBMVEX////kTSbxZSnr6+sAAADkSR7pdVzrWSjIyMj39/fkRBTr8PDwXRbxYiPnp5r4u6f3sZnyek/pzcfkPwbwVwDj4+NVVVXnnI3lZEn97enAwMB6enq6urqnp6flak7jRhoiIiJqamroVCcWFhYuLi7iOADxXxvuXyjqfGXytar41tDwqJr1xLv65eHmXj398vDtlIP1l3frg27S0tLmWDT0iWTmhnPr39zzvbTpx8H52dL60MPul4b5w7Lmi3norqOSkpJERESUlJRQUFA/Pz9xcXHqURTycz71lnXscEz2oojq19T4tJ/5yLrzgVXs+vx+gb60AAALT0lEQVR4nO2de1vaWBDGgxKVgLY1WHW7Ne22UG+AWqpWLXYvra697Pf/NpsQAwnMDBnynpDy8P6zNg+c5Lfn5OTNzJyDZen0eznS88GxwaHyVuIT43qR/PjbeMsvks1Yzwf//E15jdkEJSx/Hjb8PnZ4jgjLy4NG3s4p4aCRl/Gj80QYXX0lcXCuCMthE6/nmPBzcGgteWy+CPvfeTPXhH9a1l8E9BwRln9fHj1SEMLym0gjl1Z51PAB8GVwjCJ89Xz0SFEICW3FPzokfJFoQmxhQWheC8KYFoTlN2/j3331av4Iy/E3pvLakHd+CONvvc+teezD+N+VOSUcWO6XFk+4liNfnPDtVqQMhNaX8K+/LYHw79dx/ZUfIXHJesLHV99liTCp178YYdjgS2uOCQOSf/p/zC1hJfra3BJaLz+H/51fwkgLwgUhSEPCN8QlM4RfEk1whCPN/DkjwuW1SO8HxwaH1irxj24NDifAYx+3mOP9Zt6v0XpvLbTQQgsttNBCCy200EK/oHb3Voqsvd3MhJ2GXWQ1Otk70SkVWU52QKs7awhRXQDhnj1rCkH2HoBwv9CE+wDCnjdrDEFeD0B4VOSpxjkCEB4UmvAAQHjszhpDkHsMIDwsNOEhgLBVaMIWgLBTaEKAabMsLOEfqxn1R4IQAWhhn4erSxm1Gm/NgxC2oaYGSmi3IYQrBSZcgRBibVtmwvh9CDFtlnUDNTVQQmcbQoi1bZkJ441BTBvatkEJIaYNbduwhAjThrZtWEKEaQuibUUifBdvDBFp81Up1EyTIHQqky8/jZCAmQkTpg0RaQu0gzQ1SEJ7B0QItW1QQoxps6wzpG3LSpgwbWcgwu2iEoJMm2VtICfTrITxtpwNEOFlYQkvQYSCbbMdrb7WtFpnCUGmTbJt9vmGVgdPtPqwzhJiTJtl7bK2zdmoaqU//UMzBpg0bdkTwI9iCb2b6rJSep+V6MMkIQpQIDzPgfAuTrhqhpAD9E1FDoS1JY6wBCNk08B2OwfCOkcISQCH4m2bY56wkyBMmLZzGOEJS9gwT9jiCW9ghHwa2L0wTniVIEwMIEQCOBRv29xvxgl/1FhClGmT4onuR+0wVRM+YQndaxjhFUvoXBonfNpkCa9ghKJtM014zxLiTJuQBna2jRP+ZE0bJgEcigOcwrapCZ+xhDhLY1ld1tSobZuaMD5GTaRHQ/G2bcc0YYW1pUDTJlXvdZWAakLetEGq9iLxts0zTSiYthMgodK2Id/xr3hLgzNtUhqYsm3V221eR091umejNKAEcCidbav2XDbU5n1t6iRE2jAJ4FA621bdFgKs2eKlCUKcaZPiiZRtq97mQthAxRID8Wlgj7Bt1Y9CXjwToYkE8KN4wh5BuJkPIRLQYp/4pG37ZorQUKQtEJsGpqNtQm0DjBCWAA7F2zabIhQSjpkIjZk2qXrPIQCr7RwIQVV7kfgnHGXbqsJKIhghLAEcSmnbzgwRxhuCmja9beNvRBgh1LRJaWDStgkriXCEqARwKJxtwxEiTZs22lYVSlKzEBqLtPmq8C/5VLRNsG0wQg9UtReJvWJ7X2fbshAaNG3Cogsy2nZh5j40FksMxFfvkdE2j11evrquUoIwYdpQVXuRznW2bW+H07/PVFrnCMGmTbJtDV20TXdaPpYINm1iPFGXJNXNgNd8LBFr2sQ0sC5JqiP8xKdHsaZNa9tghEJ6FGvaxHiiLkmqI3zIIwEcSkgD65KkOkKhpg1r2ixltA1GyKdHsZG2QOzzkLRtKELW0pRsOCFv23S1bTrCdY4QbtrERRfmCDt8Ahht2iyLD73okqQqwl0+PYpaajHUDW9MVbVtKsKrPKr2IqFsm4pQMG2opRZDoWybipA3bcCqvUjXINumIvyeR9VeJMG23RojFEwbNtIWaBdU26YivOdr2nBVe5E67H2os20qQr5qz4HbUpRtq6oI+aUWeNMmxRN3NhVq7TKizpm4DY2sAI6LXw1suwrVOVHnzGOpxVCgvfeYeOn6HXFK3rTZeNMm2TYI4U/ilLmaNtjeewxh85Q45XUeSy2GAm3iwhE+EKfM1bTBNnFhCGvfiVPmatok2wYh/EGcMsdIW6AWZosTjpDqlHt+fSzellpWRSCkkkw6wjp1ybxpa4DTo6H4maa7Ny7OIHCElM/kTRtig+RxsVsm23v/jeeYLpjblhulVKckPmHctElbJncJ672lI1wiTthhbakR0ybaNuotgvkoTag1bdiqvUh8oZNH1bYxIWSGkDJtwlILdAI4lG7RBVe9RxM274kTCpE2E6ZNrN7bJAiZQc0QUqZNWB+LTgCHwlTv0YSkaRPWx6ITwKGENDARbeMWXTCEn4gT5mza1NV7zM5EDCFl2k5Z02YglhiIr97zTghCJkhOE5KmjU8Ag6v2BuIJz9IvumAIqUDUHU9oBlCIJyoWXTCE1Pn4SBtmg+Rx6dLAF/S7iIKQj7ThE8Ch+DSwRxBWNYSkLeVNGz4BHIq3bY1xwOWqYqbRmjbk+ti4+Hgibdtch/jCOOF6s16nLI2wqQm6ai+SzrYtVy8ue92GMzK0RwibtfrdwzX5xp67aZtiixP/Rfjb7b7txiljhOu1+tLpDzZNlrtp09q2AeXy5sae63p2gtAfmrUPT0RrkmPVXiSdbUt05fLHm3Z4W64GdLXas6cTreVpngngULq1smOUF5fnpYbz1R+aD9dpXFeeVXuP4rdMTrfFSXBbbvQ+pc1P81V7qA2Sx8UBKrY4UdR5J+bcHCJtgRDVe6n/91f4SBt2fWxcykUX2QhnYNrE6r0tOKFg2kwkgEPpbFtGwhmYNkz1XmrCGZg2TPVeakLetBlJAIdCVO+lJpyBaRNt2+1/KRFTE+ZatReJX3RR6vYuA5MNI7x+SDzwDW2QPCYpDew5jZ3tzcmUKQhb33/Wa02B0BigsKykL9txS2eXF1WRcgJh58fpUn1kk/JR02YqlhhIBIy6sr39UehKgbDjD83RzqMI0SuA40r1y7l+V9r7t1xXcoT+0KzVm2OdR1gaQwngUMJ+F6OUje4J2ZUUoT8014mhyRACN0geF7/3HgHpuc7KxrfRrhwjvHp6xwxNjtBE1V4kbfWeP2C7veOLOGSCcPfThyY/NGOKN2ooARxqml+68Fw3/hgZEFb680oKujFCc6Zt6uq9/mPkce4JCVtPPgjzikxopGovUobqvegxEjwUTpupO48iNJMADiXYthTy5x57/+hZbeK8Mqa8TBvil3Ptr7rOIwhNJYBDZa9mn2rnj9wsjbBlcn6ExtKjobL/BFt2QpOmDbHoYirCHKr2ImlsG44wuXuSqQRwqOyLLrSE75I/xG3YtCEWXagIR+n6hOZiiYGyL7pITfhulW7AWAI4VPZFF6kIx4ZmnNCkaUP8cu5kQq7zHmVkqcVQ2X85VyaUOi8iNGraJkXbshFOpusTmgXMbkwZwglDMy7DhJltG0GYYmgOZTABHGql4WVjHCV8p6Drx/DMJYAfdXjTHqvkmpZQ1Xn9iM/ekdlnxaN2L88cd1rK1Wk7zy2dHBueRhO6OgoquaYlVMwrIZ2zf2D2MUiqc3xS0nflasqHQiR/aLaPzKVEJ6p1sO9OPWAnyp9XSr1chyatw+32dANWpguSArMYmrQ6x+dOphl2FM9pdG8OjVWvTanW0YqD6Mowz2oyJppBneubUrau9NzGTj6PvOm1ezBS9qzovEbpvADzShpdHe0o5x5/XnELNK+kUee4l3rA+p3XvpnhI296tQ6CuUem9OcVr7DzShpVRKPuzys5WWmz8o06MfcECfB8rbRZ+Ua9MZx7fDp3JlbarCrHJ92gKwMrvf1Lzitp5A/Y3Ifm/8v/wOysXxQKAAAAAElFTkSuQmCC;" vertex="1" parent="1">
          <mxGeometry x="340" y="215" width="20" height="20" as="geometry" />
        </mxCell>
        <mxCell id="e-cugh1n1kFItVOkg3eF-25" value="" style="shape=image;verticalLabelPosition=bottom;labelBackgroundColor=default;verticalAlign=top;aspect=fixed;imageAspect=0;image=data:image/png,iVBORw0KGgoAAAANSUhEUgAAAOEAAADhCAMAAAAJbSJIAAAA9lBMVEWQxT/4+Pj///9GSD3///2MxTipznWmymCQxj2QxUH///yTyUBGSD5BPzxukESOxj88PDeVwkxnf0GPwEGx0oaly2s6NDhESzlFSTtGR0CQxUVHRkH///eLxjz3/PSJwSt0l0JCQzXv+OqJvjKVw0qmymGSyzxCPz9EQjpVZjdfdTvc6MiYzUlASjbm8NTn8t3U5r3G3qq31YvM4LGMxCa+2JjI36SZx1ulyGyHxS7w+uixz3qDuxh7qD+LukdsiUNNVTuHqUhRYj1wh0tGQUlKWjlbbTw8NzN7nUA4NT2Tt0qJqFNhcEeAmE9dZUuQs1JqgUgxKy9ALWbwAAAP20lEQVR4nO2dDVvayBbHc0PGnSHBAcGaF0OUpAlV5KVqKbpF7dbWurt3937/L3PPTAgSIMjLhEif/HefPrZCkl/OnJkzZ96k//zqkrJ+gNSVE+6+csLdV064+8oJd1854e4rJ9x95YS7r5xw97V9wvqW7zePUE5DiiIXZbl+06jL8JOSyj1kOVPCY1nu1DzJ8WrnMoNNRZkRcpM1ag6yMcbIvW1wm47+XaQyIywW5WKviqRQNnI/HQNiCmU1K0Ig6XoOJiPCqkScChTVFMpqZjbsHDoSwSNAiaEi53Nb/H22T6gozN3qH10kjfkkidmSgDt+rAuvVLdPyMrhpYukuXKqPVk+Fnc3OYtSWpTPKwOC5xMSeuWdC7yZvE1CJWohbh0SFstZUfgfOXsdkY3G9giLrDGQ69dJBfRFyL2GKKcoyCG3WErZE196iJqvEUrUNsEdBdlxi6VUkdvvB1RCr9oQGg+E+p3dIVReQjQbKhjTTKhlJkWw/Xutwb61cVndhg0hFlO4Ay5hvRczkivpmreOGyJuw4asBexWHIJf98AJK1JqOmYXWscdIOQhmi3RpEYwiRFR6r7fOJBLm5DFaPWasxrbhLAD7gj9kPXLasqEjK/3egu4gJD1q15qq7dHCA7Yd0y6PqHJSiv0q9Z3xrQIR931zp6DKU6I0ZayIQHvRS4EcsqaRTU1QhZ0QQuxtgPGRR3oV61Xq6ZWSqEd67mDDTxwCnFQ7RXflg3l876DeMdWCCEGM1bW6lelQBj1kRicoELKRcEdG+zqq+VyhBNCFwlK07XrLBN+riaMJfeaFdWVkgDibQi377pQg0qrxGhLEmIyqHZXTMcJJQzb5XaftRBi3G9KcFl0NQrklCWrHZGEvIA2aqJaiARh27m94eHgch0rcYShAT9Jtr9BCLMMoWki6TrMiWydUO5WESbC/S8uAhUORl53KTxxhLzAdD67NqsP0rUhMBIKfY7flszICSIEt298ZHxbE4ZArrFMdSOslPYklLbtpkSR1FvCiIIIIUQj0op9+M0E8RKxB0sEcpsSFpkL3hyGIej2hZ3DDs8jpEZ4LLM0toMkoRHoKojIYQnyBYgbEipysechVjwzIpQIQtXLVGw4am/bfYTZ+GZWgHwwx+nzmQ7KXFuuS3jMGW/2HHvLNegcQbDqHjaS3HF9G8o8SUHEd5LWIIRalY1XzR0CWJcQ6tCu5xDWockakPU4KKaoMr9ftRYhKw/tQ5eFZyR7wEjQcrTBe6bNuBYh7yNRYVkmQSJk4N7WhRAqxZ6L7DdQPOPCLCP3++XGpZRlgliW6Q3UMFPifRri1Ka6HOsQCsvzpiLnelNCpZFVELqknHYMcVVC+G5vYErZN/OJwvR6Iz+EduIzkt5cLTMhjPY2siG0FL+9tWZiSpsTvs8JM9amhMovX0pzwuyVE+aEOWH2ygnfDiEGrfO9nSHE2JTWQtwdQvPLUAXElcd7doWQYu+dfmeqlP7ChOVC8+KktfKw6+4QVsqGpTXvH9QVjbgrhBIQFnRDK5T/Gqp0lZzCThGC9EKz/LDSF3eNEFTaV1fJfO0gYbC/0vDkDhL++jbMCaeUE+aEOaEw5YSJyglzwgRCrFaJunANF5sZhhFyEGU/LewsYJX1mLxkQv5tqqrqvMuIJ2R38at3Rx++qIvmD2GJ2s5tp3N7xabaJgaa8Bp88+Rg6Nvej2QbwkvyqwcfntQ5HSvxhJhS9eQosJrBWcVPBJQk+6p/LhcV5bzimNhLAsSo9XAfBEd35gJCjEjrRA+s0tdn1Z5+WeIJqfrPfaDpuqY1y/stNQkQVdlUlyL7r5e4rBtjc/ghaOoFI7j44zSR0IS30LQM3Totn3nTvxRHyNJ9SCL+8OydVigYhqEbheD+QSUkvqiZLbGUBhKf6FoMl2XVay4U1alJm+xBVe/uh8UuVihYTWuWEJkmxUQdfg+sAtxUN4ygfEJUWzLJeImAOEICFyU++eM0sPRCJC34OlTh0ScWXcBfwt08xjcGyvahQwmNr19HNivthRlNELI3Z5O7029GdD9dLz0+tGz0MsNOoA0JRf7JUUmLP08zOPD8yRQgRU6/Gy2bHV0EdO45ODaxylYfHgPraBEhxlCBwi0Luh69VM3SmqXvw9bLSgGBfkj958eypTG9PA6U1ZJ+MumOyO0VQ6qJi8Bfjq/dialHWK18DzRNtxYRhrc0DK1gjH+rg3M0SwfmOCUnsJSa3AFnpWnMHblfQUFGtdn5giPV96KXhbF38MOae7WYDYdnP5tzP9M8fSKjVlYcoXr3bc4LZ4RQE95XeWWDCd5L3BYJnqM/evG0dR8UjFcJyeM33Zj/IevnkyrahupBadJpJh9PN3QvbIqx/XHSAeOERflwRIgrP3kF+gph9aiZ8BY0vXmXAmEQPhP4oaGXymAEQ+MVABjjosrDG4LsWjT7mi+n6xTDH0fXGhMO343fEvxhgUdq4wp6klDT+WcMVsWUyk2joI0sbzBCLJbQPwirUQPqtebP/QqEIroWhPezjsyoIq2Nvsg4bw5d73K8B4QyQVh5F/EYRvPn3ZNeOrWMOYQGr9WAymoePT1/KFmF8EXAK95XcTqE8Lat0lnVx37r5CKq7I1ZQkVhW9RA03g4bhrnEp4G34eq791BlZxIqMELuGv5vv90XzJG/vHtblSbiieE2OmhRVk9plYeg0RCuf4bYsO6BLmd8bVmCbX7L9BlILRV/d5MJDyyIK5o/flHxSf7o1LaLH8Zxf3iS6mmnbbCZUHUP7CSCRsmPAEEatg5X2DD0pNv8ovN61tEhHpw4g//KpW1v9Whzpzf+PHhOWqCUyAscEL2nOoiwnoUor1GGOLQBYQFINwPLOvUaA1ZjPCNlSLxLX5ahOpyhH8HEM0cMcJmc78FcWL1DRBSvi/C64TkNUKtdOKfvINa96I1bJbOKqpEXrozwgn1kR++SlisOTY12S4lncWEmGc5TLOsJfohEHp/WD/++49K9qcHiTMjDFdKIb4icgGhccCidmpT/+/ZPM2Y0ILOvf/Pny3ogfnTnfzsbAg6/lTd60xea057GOhPLYpaw6/l2R4wxDRhi68HwRlR+USNFPM0s35I/H8nCENvwhM2ZM7Ir6HMEHrjbgrERV+fvTOIyF5a/CgXUB11ruCt6lC/mMz/pOlcVBqEFy0pIhy10tqI0IzbMK5Y1Paz8CLrtFCa+OvLGHD1YhzhQ6BRvn8wfWlm4pR4QqiuR4TQoQrihMTGSxJOdjW1QqwnFexHdUlVGxtWY7F3+fuzb5tmioQ8NjbKf0VJRPvhnREjhBfcTyQEedH7N/832deMZQ20HydRuGI+BuPCzN6BVmoeeNMZTJG9pyaUFa10cRKZEIrp89eyBp0oIIxyX6jfZrt3x9Z3KuGi5PNx1hSrf0IMrY36RpFYxg0g7lqRp+HqQakUz3QE5X2TxvKJIm3YhDbXunvJO/Hc1MN9mdc0L9m9K7ZPZ2yvFd596uw540ejtmruHzWtqTyNAQH12ZA3kNGbeP5QnkjtgS2bpfsvsc1GxBKWv0/mDll+UfLJnR5YE4TYRNVPdTkOGG63+1ILQm/Cr5ydxvg0KIVfv0CI87IjDPh168vjRMZRgw5iqexNVjYCS+m/Px8fwpYqsiGbEiph3zt4VzDHURSFym5QYfvJ8I1Mw7t3vQHPU0VvAbOnV6GMG0aBpWI0zTgySsaJysxs4okUOfLNE2gq+YcKlg5VKrT+k5WNOEI0fDLn5/CR//wUHzIxqfO+I/N9AXkuoz9/N0yk/nnBsvWsGB59Kx+Y8xZSQzewclZqsmEE48gqXTy04lNQBeZLycygSPQLQhCJjUxgmyLnYz3ku6k5CcMWBNmtO4Nnm6x3H4azoy78Q+wVDsEdNcso6fstdWq2tMCcd+IkZfbvsVWY3I8IqvaOwQE/VRFK+iJUVv7wrGxopUfo6icsNoZ+NPHZ2EyzeVBVZxa0bmMMmCStMR30u92Ks3AgFd5O68vXwkmCA7zcwif7B8/zRvMyHeUmCPT6ToosUbPExVRVnbc1caaErFpdZrfrJSZ3EwlRPHdr4mxnKhCo/F95eDLx5wLBq0rYsmJn5mKsrZwwJ8wJs1dOmBPmhNkrJ8wJc8LslRPmhDlh9soJX9vNrMh2M3vTsjckVOTrt02IBx9leQNCeD1tN2uIhcJue1NCueawvO2b3HePghveypsRgup9G1Mzu+2fFwibqN+QN6tLOeKtg96kCSX7amZW+VqE4It89OGtCTsVNqIen1e+FiFTr5o0gJSJKGXDqDNb7G5AGB5K+XZK6uhAaJGERUVu7K1/rqFo8cPnivM29F67lPI1MOcVdnpxph5J+PyI0UEXIvdkjzAvHQR3yLS0Ip+vO0o6WW9TQnZK+iDLna8xsUMHTDrjYkNCVvI7n93sNk4m+Opzmz1G4vFPm9qQv7mu52KKKd0mKMF8i3LH60brbxK0IWFIyc7Kc1M+yGpamC8b/f1T4sI4cYRs5WtRrteu7O26I7Tw7l6dHU2y+HQyATZkgEV2rLiDtxaNE3ai1WGb0b12wJwIwpEtlW7VWX2HvDUJbeQteRCiSEJ+LtKaG1auKORe3yyoXdIhLLL6urHnboEQO7eNpY8jFUc4EjufLMUgB0MF6vRHp1hmQygrPQmR1NwR+hDkMtuTVhU2/Te1PgeFEK2xrPVSIuQrR24O02HEbB7u0mespkUYCvpVkiTuvEBqsyDNrSx9NmfKhHwZc484psgah7jSp1cDmG0RMkFR/ejYogixiZxaY60T5NMhVML16J3DK1tihztvVlgJO3b8PV/ztroJ07OhzBnPvQHGaN5M3mWNx3sRqNpd2XbbIGSJhWKPrcJY34asmCN0zZZprImYrg3ZQzVqG7UcGHMHXPKI6i0TRg0XXz+yzjnIbLtyfj7lJkqVcKSifFl11mkaqY3chWeMvhVCeMbi9TrZKugjFVeMYDIhLPIFXTd74Xl0S7WQ/JPYvb1hJza+fcJI/Nzn5U5sY58b9M83LaBc2yOEx7107OWiHGw6IwfcHHKLNgTVPy7ljthm2xKsHr7M1RYJeUzZ+ezYJsEkCZQteUMsiybL6zfyMW3Xhiy3et4fzF2uxP0PI1sahCc0i9J2Cfk4B9sYMmEAAJsUWsB1+kjJ2rINw3JXTwrksP07y6IpxbkjgetpyzaM1H7v2BLfVClWRNH7zuvfXVGZELJjy7ueQ+3YCSt44F0KqVviysaG7KT3+icXxRaZuyxJoayUKVxGWRGyquTmlq/p5puQUeaAiiKmgYgpG8JI7bDlgBbeE++AI2VJyOx4WUHIcfvzpvoIUqY2VI6huHba7Y6yapp3BWVLOPdHwVqS8NdSTrj7ygl3Xznh7isn3H3lhLuvnHD3lRPuvnLC3VdOuPv6P8uz85mY8z3NAAAAAElFTkSuQmCC;" vertex="1" parent="1">
          <mxGeometry x="490" y="446.25" width="27.5" height="27.5" as="geometry" />
        </mxCell>
        <mxCell id="e-cugh1n1kFItVOkg3eF-26" value="" style="shape=image;verticalLabelPosition=bottom;labelBackgroundColor=default;verticalAlign=top;aspect=fixed;imageAspect=0;image=data:image/png,iVBORw0KGgoAAAANSUhEUgAAAOEAAADhCAMAAAAJbSJIAAAA9lBMVEWQxT/4+Pj///9GSD3///2MxTipznWmymCQxj2QxUH///yTyUBGSD5BPzxukESOxj88PDeVwkxnf0GPwEGx0oaly2s6NDhESzlFSTtGR0CQxUVHRkH///eLxjz3/PSJwSt0l0JCQzXv+OqJvjKVw0qmymGSyzxCPz9EQjpVZjdfdTvc6MiYzUlASjbm8NTn8t3U5r3G3qq31YvM4LGMxCa+2JjI36SZx1ulyGyHxS7w+uixz3qDuxh7qD+LukdsiUNNVTuHqUhRYj1wh0tGQUlKWjlbbTw8NzN7nUA4NT2Tt0qJqFNhcEeAmE9dZUuQs1JqgUgxKy9ALWbwAAAP20lEQVR4nO2dDVvayBbHc0PGnSHBAcGaF0OUpAlV5KVqKbpF7dbWurt3937/L3PPTAgSIMjLhEif/HefPrZCkl/OnJkzZ96k//zqkrJ+gNSVE+6+csLdV064+8oJd1854e4rJ9x95YS7r5xw97V9wvqW7zePUE5DiiIXZbl+06jL8JOSyj1kOVPCY1nu1DzJ8WrnMoNNRZkRcpM1ag6yMcbIvW1wm47+XaQyIywW5WKviqRQNnI/HQNiCmU1K0Ig6XoOJiPCqkScChTVFMpqZjbsHDoSwSNAiaEi53Nb/H22T6gozN3qH10kjfkkidmSgDt+rAuvVLdPyMrhpYukuXKqPVk+Fnc3OYtSWpTPKwOC5xMSeuWdC7yZvE1CJWohbh0SFstZUfgfOXsdkY3G9giLrDGQ69dJBfRFyL2GKKcoyCG3WErZE196iJqvEUrUNsEdBdlxi6VUkdvvB1RCr9oQGg+E+p3dIVReQjQbKhjTTKhlJkWw/Xutwb61cVndhg0hFlO4Ay5hvRczkivpmreOGyJuw4asBexWHIJf98AJK1JqOmYXWscdIOQhmi3RpEYwiRFR6r7fOJBLm5DFaPWasxrbhLAD7gj9kPXLasqEjK/3egu4gJD1q15qq7dHCA7Yd0y6PqHJSiv0q9Z3xrQIR931zp6DKU6I0ZayIQHvRS4EcsqaRTU1QhZ0QQuxtgPGRR3oV61Xq6ZWSqEd67mDDTxwCnFQ7RXflg3l876DeMdWCCEGM1bW6lelQBj1kRicoELKRcEdG+zqq+VyhBNCFwlK07XrLBN+riaMJfeaFdWVkgDibQi377pQg0qrxGhLEmIyqHZXTMcJJQzb5XaftRBi3G9KcFl0NQrklCWrHZGEvIA2aqJaiARh27m94eHgch0rcYShAT9Jtr9BCLMMoWki6TrMiWydUO5WESbC/S8uAhUORl53KTxxhLzAdD67NqsP0rUhMBIKfY7flszICSIEt298ZHxbE4ZArrFMdSOslPYklLbtpkSR1FvCiIIIIUQj0op9+M0E8RKxB0sEcpsSFpkL3hyGIej2hZ3DDs8jpEZ4LLM0toMkoRHoKojIYQnyBYgbEipysechVjwzIpQIQtXLVGw4am/bfYTZ+GZWgHwwx+nzmQ7KXFuuS3jMGW/2HHvLNegcQbDqHjaS3HF9G8o8SUHEd5LWIIRalY1XzR0CWJcQ6tCu5xDWockakPU4KKaoMr9ftRYhKw/tQ5eFZyR7wEjQcrTBe6bNuBYh7yNRYVkmQSJk4N7WhRAqxZ6L7DdQPOPCLCP3++XGpZRlgliW6Q3UMFPifRri1Ka6HOsQCsvzpiLnelNCpZFVELqknHYMcVVC+G5vYErZN/OJwvR6Iz+EduIzkt5cLTMhjPY2siG0FL+9tWZiSpsTvs8JM9amhMovX0pzwuyVE+aEOWH2ygnfDiEGrfO9nSHE2JTWQtwdQvPLUAXElcd7doWQYu+dfmeqlP7ChOVC8+KktfKw6+4QVsqGpTXvH9QVjbgrhBIQFnRDK5T/Gqp0lZzCThGC9EKz/LDSF3eNEFTaV1fJfO0gYbC/0vDkDhL++jbMCaeUE+aEOaEw5YSJyglzwgRCrFaJunANF5sZhhFyEGU/LewsYJX1mLxkQv5tqqrqvMuIJ2R38at3Rx++qIvmD2GJ2s5tp3N7xabaJgaa8Bp88+Rg6Nvej2QbwkvyqwcfntQ5HSvxhJhS9eQosJrBWcVPBJQk+6p/LhcV5bzimNhLAsSo9XAfBEd35gJCjEjrRA+s0tdn1Z5+WeIJqfrPfaDpuqY1y/stNQkQVdlUlyL7r5e4rBtjc/ghaOoFI7j44zSR0IS30LQM3Totn3nTvxRHyNJ9SCL+8OydVigYhqEbheD+QSUkvqiZLbGUBhKf6FoMl2XVay4U1alJm+xBVe/uh8UuVihYTWuWEJkmxUQdfg+sAtxUN4ygfEJUWzLJeImAOEICFyU++eM0sPRCJC34OlTh0ScWXcBfwt08xjcGyvahQwmNr19HNivthRlNELI3Z5O7029GdD9dLz0+tGz0MsNOoA0JRf7JUUmLP08zOPD8yRQgRU6/Gy2bHV0EdO45ODaxylYfHgPraBEhxlCBwi0Luh69VM3SmqXvw9bLSgGBfkj958eypTG9PA6U1ZJ+MumOyO0VQ6qJi8Bfjq/dialHWK18DzRNtxYRhrc0DK1gjH+rg3M0SwfmOCUnsJSa3AFnpWnMHblfQUFGtdn5giPV96KXhbF38MOae7WYDYdnP5tzP9M8fSKjVlYcoXr3bc4LZ4RQE95XeWWDCd5L3BYJnqM/evG0dR8UjFcJyeM33Zj/IevnkyrahupBadJpJh9PN3QvbIqx/XHSAeOERflwRIgrP3kF+gph9aiZ8BY0vXmXAmEQPhP4oaGXymAEQ+MVABjjosrDG4LsWjT7mi+n6xTDH0fXGhMO343fEvxhgUdq4wp6klDT+WcMVsWUyk2joI0sbzBCLJbQPwirUQPqtebP/QqEIroWhPezjsyoIq2Nvsg4bw5d73K8B4QyQVh5F/EYRvPn3ZNeOrWMOYQGr9WAymoePT1/KFmF8EXAK95XcTqE8Lat0lnVx37r5CKq7I1ZQkVhW9RA03g4bhrnEp4G34eq791BlZxIqMELuGv5vv90XzJG/vHtblSbiieE2OmhRVk9plYeg0RCuf4bYsO6BLmd8bVmCbX7L9BlILRV/d5MJDyyIK5o/flHxSf7o1LaLH8Zxf3iS6mmnbbCZUHUP7CSCRsmPAEEatg5X2DD0pNv8ovN61tEhHpw4g//KpW1v9Whzpzf+PHhOWqCUyAscEL2nOoiwnoUor1GGOLQBYQFINwPLOvUaA1ZjPCNlSLxLX5ahOpyhH8HEM0cMcJmc78FcWL1DRBSvi/C64TkNUKtdOKfvINa96I1bJbOKqpEXrozwgn1kR++SlisOTY12S4lncWEmGc5TLOsJfohEHp/WD/++49K9qcHiTMjDFdKIb4icgGhccCidmpT/+/ZPM2Y0ILOvf/Pny3ogfnTnfzsbAg6/lTd60xea057GOhPLYpaw6/l2R4wxDRhi68HwRlR+USNFPM0s35I/H8nCENvwhM2ZM7Ir6HMEHrjbgrERV+fvTOIyF5a/CgXUB11ruCt6lC/mMz/pOlcVBqEFy0pIhy10tqI0IzbMK5Y1Paz8CLrtFCa+OvLGHD1YhzhQ6BRvn8wfWlm4pR4QqiuR4TQoQrihMTGSxJOdjW1QqwnFexHdUlVGxtWY7F3+fuzb5tmioQ8NjbKf0VJRPvhnREjhBfcTyQEedH7N/832deMZQ20HydRuGI+BuPCzN6BVmoeeNMZTJG9pyaUFa10cRKZEIrp89eyBp0oIIxyX6jfZrt3x9Z3KuGi5PNx1hSrf0IMrY36RpFYxg0g7lqRp+HqQakUz3QE5X2TxvKJIm3YhDbXunvJO/Hc1MN9mdc0L9m9K7ZPZ2yvFd596uw540ejtmruHzWtqTyNAQH12ZA3kNGbeP5QnkjtgS2bpfsvsc1GxBKWv0/mDll+UfLJnR5YE4TYRNVPdTkOGG63+1ILQm/Cr5ydxvg0KIVfv0CI87IjDPh168vjRMZRgw5iqexNVjYCS+m/Px8fwpYqsiGbEiph3zt4VzDHURSFym5QYfvJ8I1Mw7t3vQHPU0VvAbOnV6GMG0aBpWI0zTgySsaJysxs4okUOfLNE2gq+YcKlg5VKrT+k5WNOEI0fDLn5/CR//wUHzIxqfO+I/N9AXkuoz9/N0yk/nnBsvWsGB59Kx+Y8xZSQzewclZqsmEE48gqXTy04lNQBeZLycygSPQLQhCJjUxgmyLnYz3ku6k5CcMWBNmtO4Nnm6x3H4azoy78Q+wVDsEdNcso6fstdWq2tMCcd+IkZfbvsVWY3I8IqvaOwQE/VRFK+iJUVv7wrGxopUfo6icsNoZ+NPHZ2EyzeVBVZxa0bmMMmCStMR30u92Ks3AgFd5O68vXwkmCA7zcwif7B8/zRvMyHeUmCPT6ToosUbPExVRVnbc1caaErFpdZrfrJSZ3EwlRPHdr4mxnKhCo/F95eDLx5wLBq0rYsmJn5mKsrZwwJ8wJs1dOmBPmhNkrJ8wJc8LslRPmhDlh9soJX9vNrMh2M3vTsjckVOTrt02IBx9leQNCeD1tN2uIhcJue1NCueawvO2b3HePghveypsRgup9G1Mzu+2fFwibqN+QN6tLOeKtg96kCSX7amZW+VqE4It89OGtCTsVNqIen1e+FiFTr5o0gJSJKGXDqDNb7G5AGB5K+XZK6uhAaJGERUVu7K1/rqFo8cPnivM29F67lPI1MOcVdnpxph5J+PyI0UEXIvdkjzAvHQR3yLS0Ip+vO0o6WW9TQnZK+iDLna8xsUMHTDrjYkNCVvI7n93sNk4m+Opzmz1G4vFPm9qQv7mu52KKKd0mKMF8i3LH60brbxK0IWFIyc7Kc1M+yGpamC8b/f1T4sI4cYRs5WtRrteu7O26I7Tw7l6dHU2y+HQyATZkgEV2rLiDtxaNE3ai1WGb0b12wJwIwpEtlW7VWX2HvDUJbeQteRCiSEJ+LtKaG1auKORe3yyoXdIhLLL6urHnboEQO7eNpY8jFUc4EjufLMUgB0MF6vRHp1hmQygrPQmR1NwR+hDkMtuTVhU2/Te1PgeFEK2xrPVSIuQrR24O02HEbB7u0mespkUYCvpVkiTuvEBqsyDNrSx9NmfKhHwZc484psgah7jSp1cDmG0RMkFR/ejYogixiZxaY60T5NMhVML16J3DK1tihztvVlgJO3b8PV/ztroJ07OhzBnPvQHGaN5M3mWNx3sRqNpd2XbbIGSJhWKPrcJY34asmCN0zZZprImYrg3ZQzVqG7UcGHMHXPKI6i0TRg0XXz+yzjnIbLtyfj7lJkqVcKSifFl11mkaqY3chWeMvhVCeMbi9TrZKugjFVeMYDIhLPIFXTd74Xl0S7WQ/JPYvb1hJza+fcJI/Nzn5U5sY58b9M83LaBc2yOEx7107OWiHGw6IwfcHHKLNgTVPy7ljthm2xKsHr7M1RYJeUzZ+ezYJsEkCZQteUMsiybL6zfyMW3Xhiy3et4fzF2uxP0PI1sahCc0i9J2Cfk4B9sYMmEAAJsUWsB1+kjJ2rINw3JXTwrksP07y6IpxbkjgetpyzaM1H7v2BLfVClWRNH7zuvfXVGZELJjy7ueQ+3YCSt44F0KqVviysaG7KT3+icXxRaZuyxJoayUKVxGWRGyquTmlq/p5puQUeaAiiKmgYgpG8JI7bDlgBbeE++AI2VJyOx4WUHIcfvzpvoIUqY2VI6huHba7Y6yapp3BWVLOPdHwVqS8NdSTrj7ygl3Xznh7isn3H3lhLuvnHD3lRPuvnLC3VdOuPv6P8uz85mY8z3NAAAAAElFTkSuQmCC;" vertex="1" parent="1">
          <mxGeometry x="332.5" y="281.25" width="27.5" height="27.5" as="geometry" />
        </mxCell>
        <mxCell id="e-cugh1n1kFItVOkg3eF-27" value="" style="shape=image;verticalLabelPosition=bottom;labelBackgroundColor=default;verticalAlign=top;aspect=fixed;imageAspect=0;image=data:image/png,iVBORw0KGgoAAAANSUhEUgAAAOEAAADhCAMAAAAJbSJIAAAA9lBMVEWQxT/4+Pj///9GSD3///2MxTipznWmymCQxj2QxUH///yTyUBGSD5BPzxukESOxj88PDeVwkxnf0GPwEGx0oaly2s6NDhESzlFSTtGR0CQxUVHRkH///eLxjz3/PSJwSt0l0JCQzXv+OqJvjKVw0qmymGSyzxCPz9EQjpVZjdfdTvc6MiYzUlASjbm8NTn8t3U5r3G3qq31YvM4LGMxCa+2JjI36SZx1ulyGyHxS7w+uixz3qDuxh7qD+LukdsiUNNVTuHqUhRYj1wh0tGQUlKWjlbbTw8NzN7nUA4NT2Tt0qJqFNhcEeAmE9dZUuQs1JqgUgxKy9ALWbwAAAP20lEQVR4nO2dDVvayBbHc0PGnSHBAcGaF0OUpAlV5KVqKbpF7dbWurt3937/L3PPTAgSIMjLhEif/HefPrZCkl/OnJkzZ96k//zqkrJ+gNSVE+6+csLdV064+8oJd1854e4rJ9x95YS7r5xw97V9wvqW7zePUE5DiiIXZbl+06jL8JOSyj1kOVPCY1nu1DzJ8WrnMoNNRZkRcpM1ag6yMcbIvW1wm47+XaQyIywW5WKviqRQNnI/HQNiCmU1K0Ig6XoOJiPCqkScChTVFMpqZjbsHDoSwSNAiaEi53Nb/H22T6gozN3qH10kjfkkidmSgDt+rAuvVLdPyMrhpYukuXKqPVk+Fnc3OYtSWpTPKwOC5xMSeuWdC7yZvE1CJWohbh0SFstZUfgfOXsdkY3G9giLrDGQ69dJBfRFyL2GKKcoyCG3WErZE196iJqvEUrUNsEdBdlxi6VUkdvvB1RCr9oQGg+E+p3dIVReQjQbKhjTTKhlJkWw/Xutwb61cVndhg0hFlO4Ay5hvRczkivpmreOGyJuw4asBexWHIJf98AJK1JqOmYXWscdIOQhmi3RpEYwiRFR6r7fOJBLm5DFaPWasxrbhLAD7gj9kPXLasqEjK/3egu4gJD1q15qq7dHCA7Yd0y6PqHJSiv0q9Z3xrQIR931zp6DKU6I0ZayIQHvRS4EcsqaRTU1QhZ0QQuxtgPGRR3oV61Xq6ZWSqEd67mDDTxwCnFQ7RXflg3l876DeMdWCCEGM1bW6lelQBj1kRicoELKRcEdG+zqq+VyhBNCFwlK07XrLBN+riaMJfeaFdWVkgDibQi377pQg0qrxGhLEmIyqHZXTMcJJQzb5XaftRBi3G9KcFl0NQrklCWrHZGEvIA2aqJaiARh27m94eHgch0rcYShAT9Jtr9BCLMMoWki6TrMiWydUO5WESbC/S8uAhUORl53KTxxhLzAdD67NqsP0rUhMBIKfY7flszICSIEt298ZHxbE4ZArrFMdSOslPYklLbtpkSR1FvCiIIIIUQj0op9+M0E8RKxB0sEcpsSFpkL3hyGIej2hZ3DDs8jpEZ4LLM0toMkoRHoKojIYQnyBYgbEipysechVjwzIpQIQtXLVGw4am/bfYTZ+GZWgHwwx+nzmQ7KXFuuS3jMGW/2HHvLNegcQbDqHjaS3HF9G8o8SUHEd5LWIIRalY1XzR0CWJcQ6tCu5xDWockakPU4KKaoMr9ftRYhKw/tQ5eFZyR7wEjQcrTBe6bNuBYh7yNRYVkmQSJk4N7WhRAqxZ6L7DdQPOPCLCP3++XGpZRlgliW6Q3UMFPifRri1Ka6HOsQCsvzpiLnelNCpZFVELqknHYMcVVC+G5vYErZN/OJwvR6Iz+EduIzkt5cLTMhjPY2siG0FL+9tWZiSpsTvs8JM9amhMovX0pzwuyVE+aEOWH2ygnfDiEGrfO9nSHE2JTWQtwdQvPLUAXElcd7doWQYu+dfmeqlP7ChOVC8+KktfKw6+4QVsqGpTXvH9QVjbgrhBIQFnRDK5T/Gqp0lZzCThGC9EKz/LDSF3eNEFTaV1fJfO0gYbC/0vDkDhL++jbMCaeUE+aEOaEw5YSJyglzwgRCrFaJunANF5sZhhFyEGU/LewsYJX1mLxkQv5tqqrqvMuIJ2R38at3Rx++qIvmD2GJ2s5tp3N7xabaJgaa8Bp88+Rg6Nvej2QbwkvyqwcfntQ5HSvxhJhS9eQosJrBWcVPBJQk+6p/LhcV5bzimNhLAsSo9XAfBEd35gJCjEjrRA+s0tdn1Z5+WeIJqfrPfaDpuqY1y/stNQkQVdlUlyL7r5e4rBtjc/ghaOoFI7j44zSR0IS30LQM3Totn3nTvxRHyNJ9SCL+8OydVigYhqEbheD+QSUkvqiZLbGUBhKf6FoMl2XVay4U1alJm+xBVe/uh8UuVihYTWuWEJkmxUQdfg+sAtxUN4ygfEJUWzLJeImAOEICFyU++eM0sPRCJC34OlTh0ScWXcBfwt08xjcGyvahQwmNr19HNivthRlNELI3Z5O7029GdD9dLz0+tGz0MsNOoA0JRf7JUUmLP08zOPD8yRQgRU6/Gy2bHV0EdO45ODaxylYfHgPraBEhxlCBwi0Luh69VM3SmqXvw9bLSgGBfkj958eypTG9PA6U1ZJ+MumOyO0VQ6qJi8Bfjq/dialHWK18DzRNtxYRhrc0DK1gjH+rg3M0SwfmOCUnsJSa3AFnpWnMHblfQUFGtdn5giPV96KXhbF38MOae7WYDYdnP5tzP9M8fSKjVlYcoXr3bc4LZ4RQE95XeWWDCd5L3BYJnqM/evG0dR8UjFcJyeM33Zj/IevnkyrahupBadJpJh9PN3QvbIqx/XHSAeOERflwRIgrP3kF+gph9aiZ8BY0vXmXAmEQPhP4oaGXymAEQ+MVABjjosrDG4LsWjT7mi+n6xTDH0fXGhMO343fEvxhgUdq4wp6klDT+WcMVsWUyk2joI0sbzBCLJbQPwirUQPqtebP/QqEIroWhPezjsyoIq2Nvsg4bw5d73K8B4QyQVh5F/EYRvPn3ZNeOrWMOYQGr9WAymoePT1/KFmF8EXAK95XcTqE8Lat0lnVx37r5CKq7I1ZQkVhW9RA03g4bhrnEp4G34eq791BlZxIqMELuGv5vv90XzJG/vHtblSbiieE2OmhRVk9plYeg0RCuf4bYsO6BLmd8bVmCbX7L9BlILRV/d5MJDyyIK5o/flHxSf7o1LaLH8Zxf3iS6mmnbbCZUHUP7CSCRsmPAEEatg5X2DD0pNv8ovN61tEhHpw4g//KpW1v9Whzpzf+PHhOWqCUyAscEL2nOoiwnoUor1GGOLQBYQFINwPLOvUaA1ZjPCNlSLxLX5ahOpyhH8HEM0cMcJmc78FcWL1DRBSvi/C64TkNUKtdOKfvINa96I1bJbOKqpEXrozwgn1kR++SlisOTY12S4lncWEmGc5TLOsJfohEHp/WD/++49K9qcHiTMjDFdKIb4icgGhccCidmpT/+/ZPM2Y0ILOvf/Pny3ogfnTnfzsbAg6/lTd60xea057GOhPLYpaw6/l2R4wxDRhi68HwRlR+USNFPM0s35I/H8nCENvwhM2ZM7Ir6HMEHrjbgrERV+fvTOIyF5a/CgXUB11ruCt6lC/mMz/pOlcVBqEFy0pIhy10tqI0IzbMK5Y1Paz8CLrtFCa+OvLGHD1YhzhQ6BRvn8wfWlm4pR4QqiuR4TQoQrihMTGSxJOdjW1QqwnFexHdUlVGxtWY7F3+fuzb5tmioQ8NjbKf0VJRPvhnREjhBfcTyQEedH7N/832deMZQ20HydRuGI+BuPCzN6BVmoeeNMZTJG9pyaUFa10cRKZEIrp89eyBp0oIIxyX6jfZrt3x9Z3KuGi5PNx1hSrf0IMrY36RpFYxg0g7lqRp+HqQakUz3QE5X2TxvKJIm3YhDbXunvJO/Hc1MN9mdc0L9m9K7ZPZ2yvFd596uw540ejtmruHzWtqTyNAQH12ZA3kNGbeP5QnkjtgS2bpfsvsc1GxBKWv0/mDll+UfLJnR5YE4TYRNVPdTkOGG63+1ILQm/Cr5ydxvg0KIVfv0CI87IjDPh168vjRMZRgw5iqexNVjYCS+m/Px8fwpYqsiGbEiph3zt4VzDHURSFym5QYfvJ8I1Mw7t3vQHPU0VvAbOnV6GMG0aBpWI0zTgySsaJysxs4okUOfLNE2gq+YcKlg5VKrT+k5WNOEI0fDLn5/CR//wUHzIxqfO+I/N9AXkuoz9/N0yk/nnBsvWsGB59Kx+Y8xZSQzewclZqsmEE48gqXTy04lNQBeZLycygSPQLQhCJjUxgmyLnYz3ku6k5CcMWBNmtO4Nnm6x3H4azoy78Q+wVDsEdNcso6fstdWq2tMCcd+IkZfbvsVWY3I8IqvaOwQE/VRFK+iJUVv7wrGxopUfo6icsNoZ+NPHZ2EyzeVBVZxa0bmMMmCStMR30u92Ks3AgFd5O68vXwkmCA7zcwif7B8/zRvMyHeUmCPT6ToosUbPExVRVnbc1caaErFpdZrfrJSZ3EwlRPHdr4mxnKhCo/F95eDLx5wLBq0rYsmJn5mKsrZwwJ8wJs1dOmBPmhNkrJ8wJc8LslRPmhDlh9soJX9vNrMh2M3vTsjckVOTrt02IBx9leQNCeD1tN2uIhcJue1NCueawvO2b3HePghveypsRgup9G1Mzu+2fFwibqN+QN6tLOeKtg96kCSX7amZW+VqE4It89OGtCTsVNqIen1e+FiFTr5o0gJSJKGXDqDNb7G5AGB5K+XZK6uhAaJGERUVu7K1/rqFo8cPnivM29F67lPI1MOcVdnpxph5J+PyI0UEXIvdkjzAvHQR3yLS0Ip+vO0o6WW9TQnZK+iDLna8xsUMHTDrjYkNCVvI7n93sNk4m+Opzmz1G4vFPm9qQv7mu52KKKd0mKMF8i3LH60brbxK0IWFIyc7Kc1M+yGpamC8b/f1T4sI4cYRs5WtRrteu7O26I7Tw7l6dHU2y+HQyATZkgEV2rLiDtxaNE3ai1WGb0b12wJwIwpEtlW7VWX2HvDUJbeQteRCiSEJ+LtKaG1auKORe3yyoXdIhLLL6urHnboEQO7eNpY8jFUc4EjufLMUgB0MF6vRHp1hmQygrPQmR1NwR+hDkMtuTVhU2/Te1PgeFEK2xrPVSIuQrR24O02HEbB7u0mespkUYCvpVkiTuvEBqsyDNrSx9NmfKhHwZc484psgah7jSp1cDmG0RMkFR/ejYogixiZxaY60T5NMhVML16J3DK1tihztvVlgJO3b8PV/ztroJ07OhzBnPvQHGaN5M3mWNx3sRqNpd2XbbIGSJhWKPrcJY34asmCN0zZZprImYrg3ZQzVqG7UcGHMHXPKI6i0TRg0XXz+yzjnIbLtyfj7lJkqVcKSifFl11mkaqY3chWeMvhVCeMbi9TrZKugjFVeMYDIhLPIFXTd74Xl0S7WQ/JPYvb1hJza+fcJI/Nzn5U5sY58b9M83LaBc2yOEx7107OWiHGw6IwfcHHKLNgTVPy7ljthm2xKsHr7M1RYJeUzZ+ezYJsEkCZQteUMsiybL6zfyMW3Xhiy3et4fzF2uxP0PI1sahCc0i9J2Cfk4B9sYMmEAAJsUWsB1+kjJ2rINw3JXTwrksP07y6IpxbkjgetpyzaM1H7v2BLfVClWRNH7zuvfXVGZELJjy7ueQ+3YCSt44F0KqVviysaG7KT3+icXxRaZuyxJoayUKVxGWRGyquTmlq/p5puQUeaAiiKmgYgpG8JI7bDlgBbeE++AI2VJyOx4WUHIcfvzpvoIUqY2VI6huHba7Y6yapp3BWVLOPdHwVqS8NdSTrj7ygl3Xznh7isn3H3lhLuvnHD3lRPuvnLC3VdOuPv6P8uz85mY8z3NAAAAAElFTkSuQmCC;" vertex="1" parent="1">
          <mxGeometry x="197" y="361.25" width="27.5" height="27.5" as="geometry" />
        </mxCell>
        <mxCell id="e-cugh1n1kFItVOkg3eF-28" value="&amp;lt;&amp;lt;backend&amp;gt;&amp;gt;&lt;br&gt;ms-autenticador" style="shape=module;align=left;spacingLeft=20;align=center;verticalAlign=top;whiteSpace=wrap;html=1;fillColor=#ffe6cc;strokeColor=#d79b00;" vertex="1" parent="1">
          <mxGeometry x="490" y="281.25" width="165" height="50" as="geometry" />
        </mxCell>
        <mxCell id="e-cugh1n1kFItVOkg3eF-30" value="" style="shape=image;verticalLabelPosition=bottom;labelBackgroundColor=default;verticalAlign=top;aspect=fixed;imageAspect=0;image=data:image/png,iVBORw0KGgoAAAANSUhEUgAAAOEAAADhCAMAAAAJbSJIAAAA9lBMVEWQxT/4+Pj///9GSD3///2MxTipznWmymCQxj2QxUH///yTyUBGSD5BPzxukESOxj88PDeVwkxnf0GPwEGx0oaly2s6NDhESzlFSTtGR0CQxUVHRkH///eLxjz3/PSJwSt0l0JCQzXv+OqJvjKVw0qmymGSyzxCPz9EQjpVZjdfdTvc6MiYzUlASjbm8NTn8t3U5r3G3qq31YvM4LGMxCa+2JjI36SZx1ulyGyHxS7w+uixz3qDuxh7qD+LukdsiUNNVTuHqUhRYj1wh0tGQUlKWjlbbTw8NzN7nUA4NT2Tt0qJqFNhcEeAmE9dZUuQs1JqgUgxKy9ALWbwAAAP20lEQVR4nO2dDVvayBbHc0PGnSHBAcGaF0OUpAlV5KVqKbpF7dbWurt3937/L3PPTAgSIMjLhEif/HefPrZCkl/OnJkzZ96k//zqkrJ+gNSVE+6+csLdV064+8oJd1854e4rJ9x95YS7r5xw97V9wvqW7zePUE5DiiIXZbl+06jL8JOSyj1kOVPCY1nu1DzJ8WrnMoNNRZkRcpM1ag6yMcbIvW1wm47+XaQyIywW5WKviqRQNnI/HQNiCmU1K0Ig6XoOJiPCqkScChTVFMpqZjbsHDoSwSNAiaEi53Nb/H22T6gozN3qH10kjfkkidmSgDt+rAuvVLdPyMrhpYukuXKqPVk+Fnc3OYtSWpTPKwOC5xMSeuWdC7yZvE1CJWohbh0SFstZUfgfOXsdkY3G9giLrDGQ69dJBfRFyL2GKKcoyCG3WErZE196iJqvEUrUNsEdBdlxi6VUkdvvB1RCr9oQGg+E+p3dIVReQjQbKhjTTKhlJkWw/Xutwb61cVndhg0hFlO4Ay5hvRczkivpmreOGyJuw4asBexWHIJf98AJK1JqOmYXWscdIOQhmi3RpEYwiRFR6r7fOJBLm5DFaPWasxrbhLAD7gj9kPXLasqEjK/3egu4gJD1q15qq7dHCA7Yd0y6PqHJSiv0q9Z3xrQIR931zp6DKU6I0ZayIQHvRS4EcsqaRTU1QhZ0QQuxtgPGRR3oV61Xq6ZWSqEd67mDDTxwCnFQ7RXflg3l876DeMdWCCEGM1bW6lelQBj1kRicoELKRcEdG+zqq+VyhBNCFwlK07XrLBN+riaMJfeaFdWVkgDibQi377pQg0qrxGhLEmIyqHZXTMcJJQzb5XaftRBi3G9KcFl0NQrklCWrHZGEvIA2aqJaiARh27m94eHgch0rcYShAT9Jtr9BCLMMoWki6TrMiWydUO5WESbC/S8uAhUORl53KTxxhLzAdD67NqsP0rUhMBIKfY7flszICSIEt298ZHxbE4ZArrFMdSOslPYklLbtpkSR1FvCiIIIIUQj0op9+M0E8RKxB0sEcpsSFpkL3hyGIej2hZ3DDs8jpEZ4LLM0toMkoRHoKojIYQnyBYgbEipysechVjwzIpQIQtXLVGw4am/bfYTZ+GZWgHwwx+nzmQ7KXFuuS3jMGW/2HHvLNegcQbDqHjaS3HF9G8o8SUHEd5LWIIRalY1XzR0CWJcQ6tCu5xDWockakPU4KKaoMr9ftRYhKw/tQ5eFZyR7wEjQcrTBe6bNuBYh7yNRYVkmQSJk4N7WhRAqxZ6L7DdQPOPCLCP3++XGpZRlgliW6Q3UMFPifRri1Ka6HOsQCsvzpiLnelNCpZFVELqknHYMcVVC+G5vYErZN/OJwvR6Iz+EduIzkt5cLTMhjPY2siG0FL+9tWZiSpsTvs8JM9amhMovX0pzwuyVE+aEOWH2ygnfDiEGrfO9nSHE2JTWQtwdQvPLUAXElcd7doWQYu+dfmeqlP7ChOVC8+KktfKw6+4QVsqGpTXvH9QVjbgrhBIQFnRDK5T/Gqp0lZzCThGC9EKz/LDSF3eNEFTaV1fJfO0gYbC/0vDkDhL++jbMCaeUE+aEOaEw5YSJyglzwgRCrFaJunANF5sZhhFyEGU/LewsYJX1mLxkQv5tqqrqvMuIJ2R38at3Rx++qIvmD2GJ2s5tp3N7xabaJgaa8Bp88+Rg6Nvej2QbwkvyqwcfntQ5HSvxhJhS9eQosJrBWcVPBJQk+6p/LhcV5bzimNhLAsSo9XAfBEd35gJCjEjrRA+s0tdn1Z5+WeIJqfrPfaDpuqY1y/stNQkQVdlUlyL7r5e4rBtjc/ghaOoFI7j44zSR0IS30LQM3Totn3nTvxRHyNJ9SCL+8OydVigYhqEbheD+QSUkvqiZLbGUBhKf6FoMl2XVay4U1alJm+xBVe/uh8UuVihYTWuWEJkmxUQdfg+sAtxUN4ygfEJUWzLJeImAOEICFyU++eM0sPRCJC34OlTh0ScWXcBfwt08xjcGyvahQwmNr19HNivthRlNELI3Z5O7029GdD9dLz0+tGz0MsNOoA0JRf7JUUmLP08zOPD8yRQgRU6/Gy2bHV0EdO45ODaxylYfHgPraBEhxlCBwi0Luh69VM3SmqXvw9bLSgGBfkj958eypTG9PA6U1ZJ+MumOyO0VQ6qJi8Bfjq/dialHWK18DzRNtxYRhrc0DK1gjH+rg3M0SwfmOCUnsJSa3AFnpWnMHblfQUFGtdn5giPV96KXhbF38MOae7WYDYdnP5tzP9M8fSKjVlYcoXr3bc4LZ4RQE95XeWWDCd5L3BYJnqM/evG0dR8UjFcJyeM33Zj/IevnkyrahupBadJpJh9PN3QvbIqx/XHSAeOERflwRIgrP3kF+gph9aiZ8BY0vXmXAmEQPhP4oaGXymAEQ+MVABjjosrDG4LsWjT7mi+n6xTDH0fXGhMO343fEvxhgUdq4wp6klDT+WcMVsWUyk2joI0sbzBCLJbQPwirUQPqtebP/QqEIroWhPezjsyoIq2Nvsg4bw5d73K8B4QyQVh5F/EYRvPn3ZNeOrWMOYQGr9WAymoePT1/KFmF8EXAK95XcTqE8Lat0lnVx37r5CKq7I1ZQkVhW9RA03g4bhrnEp4G34eq791BlZxIqMELuGv5vv90XzJG/vHtblSbiieE2OmhRVk9plYeg0RCuf4bYsO6BLmd8bVmCbX7L9BlILRV/d5MJDyyIK5o/flHxSf7o1LaLH8Zxf3iS6mmnbbCZUHUP7CSCRsmPAEEatg5X2DD0pNv8ovN61tEhHpw4g//KpW1v9Whzpzf+PHhOWqCUyAscEL2nOoiwnoUor1GGOLQBYQFINwPLOvUaA1ZjPCNlSLxLX5ahOpyhH8HEM0cMcJmc78FcWL1DRBSvi/C64TkNUKtdOKfvINa96I1bJbOKqpEXrozwgn1kR++SlisOTY12S4lncWEmGc5TLOsJfohEHp/WD/++49K9qcHiTMjDFdKIb4icgGhccCidmpT/+/ZPM2Y0ILOvf/Pny3ogfnTnfzsbAg6/lTd60xea057GOhPLYpaw6/l2R4wxDRhi68HwRlR+USNFPM0s35I/H8nCENvwhM2ZM7Ir6HMEHrjbgrERV+fvTOIyF5a/CgXUB11ruCt6lC/mMz/pOlcVBqEFy0pIhy10tqI0IzbMK5Y1Paz8CLrtFCa+OvLGHD1YhzhQ6BRvn8wfWlm4pR4QqiuR4TQoQrihMTGSxJOdjW1QqwnFexHdUlVGxtWY7F3+fuzb5tmioQ8NjbKf0VJRPvhnREjhBfcTyQEedH7N/832deMZQ20HydRuGI+BuPCzN6BVmoeeNMZTJG9pyaUFa10cRKZEIrp89eyBp0oIIxyX6jfZrt3x9Z3KuGi5PNx1hSrf0IMrY36RpFYxg0g7lqRp+HqQakUz3QE5X2TxvKJIm3YhDbXunvJO/Hc1MN9mdc0L9m9K7ZPZ2yvFd596uw540ejtmruHzWtqTyNAQH12ZA3kNGbeP5QnkjtgS2bpfsvsc1GxBKWv0/mDll+UfLJnR5YE4TYRNVPdTkOGG63+1ILQm/Cr5ydxvg0KIVfv0CI87IjDPh168vjRMZRgw5iqexNVjYCS+m/Px8fwpYqsiGbEiph3zt4VzDHURSFym5QYfvJ8I1Mw7t3vQHPU0VvAbOnV6GMG0aBpWI0zTgySsaJysxs4okUOfLNE2gq+YcKlg5VKrT+k5WNOEI0fDLn5/CR//wUHzIxqfO+I/N9AXkuoz9/N0yk/nnBsvWsGB59Kx+Y8xZSQzewclZqsmEE48gqXTy04lNQBeZLycygSPQLQhCJjUxgmyLnYz3ku6k5CcMWBNmtO4Nnm6x3H4azoy78Q+wVDsEdNcso6fstdWq2tMCcd+IkZfbvsVWY3I8IqvaOwQE/VRFK+iJUVv7wrGxopUfo6icsNoZ+NPHZ2EyzeVBVZxa0bmMMmCStMR30u92Ks3AgFd5O68vXwkmCA7zcwif7B8/zRvMyHeUmCPT6ToosUbPExVRVnbc1caaErFpdZrfrJSZ3EwlRPHdr4mxnKhCo/F95eDLx5wLBq0rYsmJn5mKsrZwwJ8wJs1dOmBPmhNkrJ8wJc8LslRPmhDlh9soJX9vNrMh2M3vTsjckVOTrt02IBx9leQNCeD1tN2uIhcJue1NCueawvO2b3HePghveypsRgup9G1Mzu+2fFwibqN+QN6tLOeKtg96kCSX7amZW+VqE4It89OGtCTsVNqIen1e+FiFTr5o0gJSJKGXDqDNb7G5AGB5K+XZK6uhAaJGERUVu7K1/rqFo8cPnivM29F67lPI1MOcVdnpxph5J+PyI0UEXIvdkjzAvHQR3yLS0Ip+vO0o6WW9TQnZK+iDLna8xsUMHTDrjYkNCVvI7n93sNk4m+Opzmz1G4vFPm9qQv7mu52KKKd0mKMF8i3LH60brbxK0IWFIyc7Kc1M+yGpamC8b/f1T4sI4cYRs5WtRrteu7O26I7Tw7l6dHU2y+HQyATZkgEV2rLiDtxaNE3ai1WGb0b12wJwIwpEtlW7VWX2HvDUJbeQteRCiSEJ+LtKaG1auKORe3yyoXdIhLLL6urHnboEQO7eNpY8jFUc4EjufLMUgB0MF6vRHp1hmQygrPQmR1NwR+hDkMtuTVhU2/Te1PgeFEK2xrPVSIuQrR24O02HEbB7u0mespkUYCvpVkiTuvEBqsyDNrSx9NmfKhHwZc484psgah7jSp1cDmG0RMkFR/ejYogixiZxaY60T5NMhVML16J3DK1tihztvVlgJO3b8PV/ztroJ07OhzBnPvQHGaN5M3mWNx3sRqNpd2XbbIGSJhWKPrcJY34asmCN0zZZprImYrg3ZQzVqG7UcGHMHXPKI6i0TRg0XXz+yzjnIbLtyfj7lJkqVcKSifFl11mkaqY3chWeMvhVCeMbi9TrZKugjFVeMYDIhLPIFXTd74Xl0S7WQ/JPYvb1hJza+fcJI/Nzn5U5sY58b9M83LaBc2yOEx7107OWiHGw6IwfcHHKLNgTVPy7ljthm2xKsHr7M1RYJeUzZ+ezYJsEkCZQteUMsiybL6zfyMW3Xhiy3et4fzF2uxP0PI1sahCc0i9J2Cfk4B9sYMmEAAJsUWsB1+kjJ2rINw3JXTwrksP07y6IpxbkjgetpyzaM1H7v2BLfVClWRNH7zuvfXVGZELJjy7ueQ+3YCSt44F0KqVviysaG7KT3+icXxRaZuyxJoayUKVxGWRGyquTmlq/p5puQUeaAiiKmgYgpG8JI7bDlgBbeE++AI2VJyOx4WUHIcfvzpvoIUqY2VI6huHba7Y6yapp3BWVLOPdHwVqS8NdSTrj7ygl3Xznh7isn3H3lhLuvnHD3lRPuvnLC3VdOuPv6P8uz85mY8z3NAAAAAElFTkSuQmCC;" vertex="1" parent="1">
          <mxGeometry x="510" y="292.5" width="27.5" height="27.5" as="geometry" />
        </mxCell>
        <mxCell id="e-cugh1n1kFItVOkg3eF-31" value="circuit-breaker&lt;br&gt;&lt;div style=&quot;text-align: left;&quot;&gt;&lt;span style=&quot;background-color: initial;&quot;&gt;logging&lt;/span&gt;&lt;/div&gt;&lt;div style=&quot;text-align: left;&quot;&gt;&lt;span style=&quot;background-color: initial;&quot;&gt;idempotencia&lt;/span&gt;&lt;/div&gt;" style="strokeWidth=1;shadow=0;dashed=0;align=center;html=1;shape=mxgraph.mockup.text.stickyNote2;fontColor=#666666;mainText=;fontSize=17;whiteSpace=wrap;fillColor=#ffffcc;strokeColor=#F62E00;" vertex="1" parent="1">
          <mxGeometry x="730" y="40" width="150" height="100" as="geometry" />
        </mxCell>
        <mxCell id="e-cugh1n1kFItVOkg3eF-32" value="Patrones implementados" style="text;html=1;strokeColor=none;fillColor=none;align=center;verticalAlign=middle;whiteSpace=wrap;rounded=0;fontStyle=1" vertex="1" parent="1">
          <mxGeometry x="590" y="50" width="135" height="30" as="geometry" />
        </mxCell>
        <mxCell id="e-cugh1n1kFItVOkg3eF-33" value="ws-rest" style="text;html=1;strokeColor=none;fillColor=none;align=center;verticalAlign=middle;whiteSpace=wrap;rounded=0;" vertex="1" parent="1">
          <mxGeometry x="440" y="380" width="60" height="30" as="geometry" />
        </mxCell>
        <mxCell id="e-cugh1n1kFItVOkg3eF-34" value="ws-rest" style="text;html=1;strokeColor=none;fillColor=none;align=center;verticalAlign=middle;whiteSpace=wrap;rounded=0;" vertex="1" parent="1">
          <mxGeometry x="710" y="435" width="60" height="30" as="geometry" />
        </mxCell>
        <mxCell id="e-cugh1n1kFItVOkg3eF-35" value="ws-rest" style="text;html=1;strokeColor=none;fillColor=none;align=center;verticalAlign=middle;whiteSpace=wrap;rounded=0;" vertex="1" parent="1">
          <mxGeometry x="570" y="235" width="60" height="30" as="geometry" />
        </mxCell>
        <mxCell id="e-cugh1n1kFItVOkg3eF-36" value="ws-rest" style="text;html=1;strokeColor=none;fillColor=none;align=center;verticalAlign=middle;whiteSpace=wrap;rounded=0;" vertex="1" parent="1">
          <mxGeometry x="400" y="251.25" width="60" height="30" as="geometry" />
        </mxCell>
        <mxCell id="e-cugh1n1kFItVOkg3eF-37" value="ws-rest" style="text;html=1;strokeColor=none;fillColor=none;align=center;verticalAlign=middle;whiteSpace=wrap;rounded=0;" vertex="1" parent="1">
          <mxGeometry x="350" y="358.75" width="60" height="30" as="geometry" />
        </mxCell>
        <mxCell id="e-cugh1n1kFItVOkg3eF-41" style="edgeStyle=orthogonalEdgeStyle;rounded=0;orthogonalLoop=1;jettySize=auto;html=1;exitX=0.25;exitY=1;exitDx=0;exitDy=0;entryX=0.855;entryY=0;entryDx=0;entryDy=4.35;entryPerimeter=0;" edge="1" parent="1" source="e-cugh1n1kFItVOkg3eF-28" target="e-cugh1n1kFItVOkg3eF-16">
          <mxGeometry relative="1" as="geometry">
            <Array as="points">
              <mxPoint x="531" y="420" />
              <mxPoint x="284" y="420" />
            </Array>
          </mxGeometry>
        </mxCell>
      </root>
    </mxGraphModel>
  </diagram>
</mxfile>
